<?xml version="1.0" encoding="utf-8"?>
<!-- Generator: Adobe Illustrator 24.3.0, SVG Export Plug-In . SVG Version: 6.00 Build 0)  -->
<svg version="1.1" id="Layer_1" xmlns="http://www.w3.org/2000/svg" xmlns:xlink="http://www.w3.org/1999/xlink" x="0px" y="0px"
	 viewBox="0 0 470 417" style="enable-background:new 0 0 470 417;" xml:space="preserve">
<g>
	<g>
		<g>
			<g>
				
					<linearGradient id="SVGID_1_" gradientUnits="userSpaceOnUse" x1="225.2322" y1="371.7613" x2="243.4651" y2="90.672" gradientTransform="matrix(1 -1.100000e-03 -9.000000e-04 -0.846 -0.8643 354.3973)">
					<stop  offset="0" style="stop-color:#DB01FF"/>
					<stop  offset="1" style="stop-color:#8B00D0"/>
				</linearGradient>
				<path style="fill:url(#SVGID_1_);" d="M268.28,109.25c-14.69,9.01-26.23,32.55-32.2,47.6c-0.36,0.9-1.84,0.9-2.2,0
					c-6.01-15.04-17.6-38.55-32.31-47.53c-0.94-0.57-2.16,0.27-1.75,1.19c21.06,47.23,18.37,84.58,0.5,145.73
					c-0.31,1.08,1.37,1.71,2.11,0.79c12.62-15.76,23.36-30.43,31.52-49.97c0.37-0.88,1.83-0.89,2.2,0
					c8.2,19.52,18.97,34.16,31.63,49.9c0.74,0.92,2.42,0.28,2.11-0.8c-18.01-61.11-20.79-98.45,0.17-145.73
					C270.44,109.52,269.21,108.68,268.28,109.25z"/>
				
					<linearGradient id="SVGID_2_" gradientUnits="userSpaceOnUse" x1="229.4235" y1="409.7669" x2="248.3595" y2="117.8394" gradientTransform="matrix(1 -1.100000e-03 -1.100000e-03 -1 -0.5395 420.7955)">
					<stop  offset="0" style="stop-color:#DB01FF"/>
					<stop  offset="1" style="stop-color:#8B00D0"/>
				</linearGradient>
				<path style="fill:url(#SVGID_2_);" d="M247.58,109.08c0.01,6.99-5.65,12.67-12.64,12.67c-6.99,0.01-12.67-5.65-12.67-12.64
					c-0.01-6.99,5.65-12.66,12.64-12.67C241.9,96.43,247.57,102.09,247.58,109.08z"/>
			</g>
			<g>
				<g>
					
						<linearGradient id="SVGID_3_" gradientUnits="userSpaceOnUse" x1="173.45" y1="561.7916" x2="191.8223" y2="278.5531" gradientTransform="matrix(0.9772 0.2123 0.2123 -0.9772 -126.0497 642.6175)">
						<stop  offset="0" style="stop-color:#DB01FF"/>
						<stop  offset="1" style="stop-color:#8B00D0"/>
					</linearGradient>
					<path style="fill:url(#SVGID_3_);" d="M219.55,79.99c-21.03,8.6-42.95,40.32-54.92,60.46c-0.57,0.96-2.03,0.65-2.15-0.47
						c-2.54-23.29-9.33-61.24-24.9-77.79c-0.79-0.84-2.17-0.12-2,1.01c11.03,73.79-4.03,126.63-45.31,210.27
						c-0.58,1.17,0.9,2.28,1.85,1.38c20.78-19.72,38.79-38.15,55.12-64.7c0.58-0.94,2.01-0.63,2.14,0.47
						c3.84,30.93,12.58,55.17,23.31,81.73c0.49,1.21,2.29,0.82,2.25-0.48c-2.86-93.23,5.36-147.55,46-210.11
						C221.58,80.78,220.61,79.56,219.55,79.99z"/>
					
						<linearGradient id="SVGID_4_" gradientUnits="userSpaceOnUse" x1="179.3991" y1="561.9908" x2="198.3353" y2="270.0587" gradientTransform="matrix(0.9772 0.2123 0.2123 -0.9772 -126.0497 642.6175)">
						<stop  offset="0" style="stop-color:#DB01FF"/>
						<stop  offset="1" style="stop-color:#8B00D0"/>
					</linearGradient>
					<path style="fill:url(#SVGID_4_);" d="M190.91,87.89c-1.83,8.44-10.16,13.79-18.6,11.96s-13.79-10.16-11.96-18.6
						c1.83-8.44,10.16-13.79,18.6-11.96C187.39,71.13,192.75,79.45,190.91,87.89z"/>
				</g>
				<g>
					
						<linearGradient id="SVGID_5_" gradientUnits="userSpaceOnUse" x1="-2402.1826" y1="143.8025" x2="-2383.8103" y2="-139.4361" gradientTransform="matrix(-0.9772 0.2123 -0.2123 -0.9772 -2030.385 642.6175)">
						<stop  offset="0" style="stop-color:#DB01FF"/>
						<stop  offset="1" style="stop-color:#8B00D0"/>
					</linearGradient>
					<path style="fill:url(#SVGID_5_);" d="M250.47,79.99c21.03,8.6,42.95,40.32,54.92,60.46c0.57,0.96,2.03,0.65,2.15-0.47
						c2.54-23.29,9.33-61.24,24.89-77.79c0.79-0.84,2.17-0.12,2,1.01c-11.03,73.79,4.03,126.63,45.31,210.27
						c0.58,1.17-0.9,2.28-1.85,1.38c-20.78-19.72-38.79-38.15-55.12-64.7c-0.58-0.94-2.01-0.63-2.14,0.47
						c-3.84,30.93-12.59,55.17-23.31,81.73c-0.49,1.21-2.29,0.82-2.25-0.48c2.86-93.23-5.36-147.55-46-210.11
						C248.44,80.78,249.41,79.56,250.47,79.99z"/>
					
						<linearGradient id="SVGID_6_" gradientUnits="userSpaceOnUse" x1="-2396.5193" y1="148.2856" x2="-2377.583" y2="-143.6458" gradientTransform="matrix(-0.9772 0.2123 -0.2123 -0.9772 -2030.385 642.6175)">
						<stop  offset="0" style="stop-color:#DB01FF"/>
						<stop  offset="1" style="stop-color:#8B00D0"/>
					</linearGradient>
					<path style="fill:url(#SVGID_6_);" d="M279.11,87.89c1.83,8.44,10.16,13.79,18.6,11.96s13.79-10.16,11.96-18.6
						c-1.83-8.44-10.16-13.79-18.6-11.96C282.63,71.13,277.27,79.45,279.11,87.89z"/>
				</g>
			</g>
			
				<linearGradient id="SVGID_7_" gradientUnits="userSpaceOnUse" x1="234.9953" y1="446.191" x2="234.9953" y2="300.9948" gradientTransform="matrix(1 0 0 -1 0 418)">
				<stop  offset="0" style="stop-color:#FFA905"/>
				<stop  offset="1" style="stop-color:#FFEA00"/>
			</linearGradient>
			<path style="fill:url(#SVGID_7_);" d="M248.8,47.6c-0.59-3.28-3.52-5.99-6.84-6.32c-2.65-0.26-5.35,1.02-6.96,3.13
				c-1.6-2.11-4.31-3.39-6.96-3.13c-3.32,0.33-6.25,3.04-6.84,6.32c-0.54,3.02,0.75,6.06,2.29,8.7c2.9,4.95,6.85,9.27,11.5,12.63
				c4.65-3.36,8.6-7.68,11.5-12.63C248.06,53.66,249.34,50.62,248.8,47.6z"/>
		</g>
	</g>
	<g>
		<text transform="matrix(1.1323 0 0 1 74.1154 370.6696)" style="fill:#FFEA00; font-family:'PeachCake'; font-size:18.2129px;">Rooted in Love, Branching into Tomorrow</text>
	</g>
	
		<text transform="matrix(1.0126 0 0 1 16.2227 345.3552)" style="fill:#FFEA00; font-family:'Constantia-Bold'; font-size:34.9889px; letter-spacing:0.99;">EVERGREEN HARMONY</text>
</g>
</svg>
