<?xml version="1.0" encoding="utf-8"?>
<!-- Generator: Adobe Illustrator 24.3.0, SVG Export Plug-In . SVG Version: 6.00 Build 0)  -->
<svg version="1.1" id="Layer_1" xmlns="http://www.w3.org/2000/svg" xmlns:xlink="http://www.w3.org/1999/xlink" x="0px" y="0px"
	 viewBox="0 0 470 417" style="enable-background:new 0 0 470 417;" xml:space="preserve">
<g>
	<path style="fill:#0073B3;" d="M235.01,169.13c11.11,0,20.12,9,20.12,20.1c0,11.12-9.01,20.12-20.12,20.12s-20.12-9-20.12-20.12
		C214.89,178.12,223.9,169.13,235.01,169.13z"/>
	<path style="fill:#0073B3;" d="M235.01,213.67c13.69,0,24.81,11.09,24.81,24.79c0,13.71-24.81,70.33-24.81,70.33
		s-24.81-56.61-24.81-70.33C210.2,224.76,221.32,213.67,235.01,213.67z"/>
	<g>
		<path style="fill:#FF6700;" d="M294.72,28.98c16.37,0,29.65,13.26,29.65,29.62c0,16.39-13.28,29.65-29.65,29.65
			s-29.65-13.26-29.65-29.65C265.08,42.24,278.36,28.98,294.72,28.98z"/>
		<path style="fill:#FF6700;" d="M255.41,296.59c17.56-7.07,33.44-21.39,44.94-36.23c22.31-28.8,43.15-84.89,9.91-114.05
			c-11.9-10.44-28.7-12.43-43.51-8.16c-11.39,3.3-23.46,10.42-27.68,21.88c1.19-16.85,9.52-32.83,21.63-44.65
			c15.52-15.08,38.27-24.09,59.61-26.52c19.04-2.14,38.92,1.36,55.36,11.19c17.07,10.22,29.82,27.51,34.09,46.98l0.02,0.39
			c-38.39,3.35-37.04,49.16-50.53,80.2c-15.99,36.8-56.11,67.31-99.53,68.89C258.3,296.56,256.85,296.59,255.41,296.59z"/>
		<path style="fill:#00CA9D;" d="M175.3,28.98c-16.37,0-29.65,13.26-29.65,29.62c0,16.39,13.28,29.65,29.65,29.65
			s29.65-13.26,29.65-29.65C204.94,42.24,191.66,28.98,175.3,28.98z"/>
		<path style="fill:#00CA9D;" d="M214.61,296.59c-17.56-7.07-33.44-21.39-44.95-36.23c-22.31-28.8-43.15-84.89-9.91-114.05
			c11.9-10.44,28.7-12.43,43.51-8.16c11.39,3.3,23.46,10.42,27.68,21.88c-1.19-16.85-9.52-32.83-21.63-44.65
			c-15.52-15.08-38.27-24.09-59.61-26.52c-19.04-2.14-38.92,1.36-55.36,11.19c-17.07,10.22-29.82,27.51-34.09,46.98l-0.02,0.39
			c38.39,3.35,37.04,49.16,50.53,80.2c15.99,36.8,56.11,67.31,99.53,68.89C211.72,296.56,213.17,296.59,214.61,296.59z"/>
	</g>
</g>
<g>
	<text transform="matrix(1.1323 0 0 1 74.1154 382.9377)" style="fill:#00CA9D; font-family:'PeachCake'; font-size:18.2129px;">Rooted in Love, Branching into Tomorrow</text>
</g>
<text transform="matrix(1.0126 0 0 1 16.223 360.8538)" style="fill:#FF6700; font-family:'Constantia-Bold'; font-size:34.9889px; letter-spacing:0.99;">EVERGREEN HARMONY</text>
</svg>
