<?xml version="1.0" encoding="utf-8"?>
<!-- Generator: Adobe Illustrator 24.3.0, SVG Export Plug-In . SVG Version: 6.00 Build 0)  -->
<svg version="1.1" id="Layer_1" xmlns="http://www.w3.org/2000/svg" xmlns:xlink="http://www.w3.org/1999/xlink" x="0px" y="0px"
	 viewBox="0 0 470 417" style="enable-background:new 0 0 470 417;" xml:space="preserve">
<g>
	<linearGradient id="SVGID_1_" gradientUnits="userSpaceOnUse" x1="-148.4364" y1="207.9095" x2="362.6322" y2="207.9095">
		<stop  offset="0" style="stop-color:#FFA905"/>
		<stop  offset="1" style="stop-color:#FFEA00"/>
	</linearGradient>
	<path style="fill:url(#SVGID_1_);" d="M234.86,82.54c-69.24,0-125.37,56.13-125.37,125.36c0,69.24,56.13,125.37,125.37,125.37
		s125.37-56.13,125.37-125.37C360.24,138.67,304.1,82.54,234.86,82.54z M298.46,167.06c6.93,0,12.54,5.62,12.54,12.55
		s-5.61,12.55-12.54,12.55c-6.93,0-12.55-5.62-12.55-12.55S291.53,167.06,298.46,167.06z M234.86,130.1c5.3,0,9.6,4.3,9.6,9.61
		c0,5.3-4.3,9.6-9.6,9.6s-9.61-4.3-9.61-9.6C225.25,134.4,229.56,130.1,234.86,130.1z M171.28,167.06c6.93,0,12.55,5.62,12.55,12.55
		s-5.62,12.55-12.55,12.55s-12.54-5.62-12.54-12.55S164.34,167.06,171.28,167.06z M219.31,289.29c-0.84,2.75-1.75,5.47-2.68,8.18
		c-13.5-38.9-38.05-74.82-82.72-105.31c16.82,2.11,47.5,10.86,63.07,17.54c0.79-12.93-0.97-26.01-5.15-38.28
		c6.99,5.55,14.05,11.18,19.48,18.26c7.68,10.02,11.59,22.34,13.39,34.93c0.45,3.22,0.78,6.45,0.99,9.66
		C226.88,252.8,224.72,271.54,219.31,289.29z M234.95,215.71l-0.08-0.22l-0.08,0.22c-0.08-0.36-0.18-0.72-0.26-1.08
		c-2.75-12.33-7.32-24.23-13.43-35.29c-7.36-13.35-16.95-25.47-28.32-35.62c15.51,1.89,30.42,8.74,42.09,19.15
		c11.67-10.41,26.58-17.26,42.09-19.15c-11.37,10.15-20.96,22.27-28.32,35.62c-6.11,11.06-10.68,22.96-13.43,35.29
		C235.12,214.99,235.03,215.35,234.95,215.71z M253.09,297.47c-0.93-2.71-1.84-5.43-2.68-8.18c-5.4-17.75-7.58-36.49-6.38-55.02
		c0.21-3.21,0.54-6.44,0.99-9.66c1.8-12.59,5.71-24.91,13.39-34.93c5.43-7.08,12.49-12.71,19.48-18.26
		c-4.18,12.27-5.94,25.35-5.16,38.28c15.58-6.68,46.26-15.43,63.08-17.54C291.15,222.65,266.59,258.57,253.09,297.47z"/>
</g>
<ellipse transform="matrix(0.7071 -0.7071 0.7071 0.7071 -78.4999 227.0939)" style="fill:none;" cx="234.88" cy="208.3" rx="167.13" ry="167.13"/>
<text transform="matrix(0.4642 -1.0328 0.9121 0.41 77.7096 150.2686)" style="fill:#3672FF; font-family:'Constantia-Bold'; font-size:34.1493px;">E</text>
<text transform="matrix(0.6045 -0.9574 0.8456 0.5339 87.9331 127.9207)" style="fill:#3672FF; font-family:'Constantia-Bold'; font-size:34.1493px;">V</text>
<text transform="matrix(0.7297 -0.8659 0.7647 0.6444 100.0478 108.8708)" style="fill:#3672FF; font-family:'Constantia-Bold'; font-size:34.1493px;">E</text>
<text transform="matrix(0.8485 -0.7497 0.6621 0.7494 114.8618 91.2783)" style="fill:#3672FF; font-family:'Constantia-Bold'; font-size:34.1493px;">R</text>
<text transform="matrix(0.9525 -0.6122 0.5407 0.8412 134.2503 74.3004)" style="fill:#3672FF; font-family:'Constantia-Bold'; font-size:34.1493px;">G</text>
<text transform="matrix(1.0337 -0.4621 0.4081 0.9129 155.6432 60.6385)" style="fill:#3672FF; font-family:'Constantia-Bold'; font-size:34.1493px;">R</text>
<text transform="matrix(1.09 -0.3065 0.2707 0.9627 179.2886 50.2798)" style="fill:#3672FF; font-family:'Constantia-Bold'; font-size:34.1493px;">E</text>
<text transform="matrix(1.122 -0.1528 0.1349 0.9909 201.4994 44.1314)" style="fill:#3672FF; font-family:'Constantia-Bold'; font-size:34.1493px;">E</text>
<text transform="matrix(1.1322 0.0131 -0.0116 0.9999 224.274 41.013)" style="fill:#3672FF; font-family:'Constantia-Bold'; font-size:34.1493px;">N</text>
<text transform="matrix(1.1239 0.1376 -0.1215 0.9926 250.474 41.8252)" style="fill:#3672FF; font-family:'Constantia-Bold'; font-size:34.1493px;"> </text>
<text transform="matrix(1.0964 0.2828 -0.2498 0.9683 261.1163 42.4713)" style="fill:#3672FF; font-family:'Constantia-Bold'; font-size:34.1493px;">H</text>
<text transform="matrix(1.034 0.4615 -0.4076 0.9132 293.0944 51.2514)" style="fill:#3672FF; font-family:'Constantia-Bold'; font-size:34.1493px;">A</text>
<text transform="matrix(0.9555 0.6076 -0.5366 0.8438 314.3398 60.7322)" style="fill:#3672FF; font-family:'Constantia-Bold'; font-size:34.1493px;">R</text>
<text transform="matrix(0.8366 0.763 -0.6739 0.7388 336.1186 74.3757)" style="fill:#3672FF; font-family:'Constantia-Bold'; font-size:34.1493px;">M</text>
<text transform="matrix(0.6874 0.8998 -0.7946 0.6071 359.5048 96.1023)" style="fill:#3672FF; font-family:'Constantia-Bold'; font-size:34.1493px;">O</text>
<text transform="matrix(0.5364 0.9972 -0.8807 0.4737 376.2478 118.3103)" style="fill:#3672FF; font-family:'Constantia-Bold'; font-size:34.1493px;">N</text>
<text transform="matrix(0.3857 1.0646 -0.9402 0.3407 388.4044 141.3282)" style="fill:#3672FF; font-family:'Constantia-Bold'; font-size:34.1493px;">Y</text>
<g>
	<path style="fill:none;" d="M69.11,186.83c0,0-16.82,115.7,92.26,171.54c0,0,67.49,39.35,147.06,0c0,0,99.39-39.59,93.62-164.47"/>
	
		<text transform="matrix(0.7769 0.8237 -0.7275 0.6861 109.4822 318.7794)" style="fill:#3672FF; font-family:'PeachCake'; font-size:18.2129px;">R</text>
	
		<text transform="matrix(0.8258 0.7748 -0.6842 0.7293 117.1326 326.8302)" style="fill:#3672FF; font-family:'PeachCake'; font-size:18.2129px;">o</text>
	
		<text transform="matrix(0.8647 0.731 -0.6456 0.7637 123.3611 332.673)" style="fill:#3672FF; font-family:'PeachCake'; font-size:18.2129px;">o</text>
	
		<text transform="matrix(0.8996 0.6876 -0.6073 0.7945 129.8484 338.1505)" style="fill:#3672FF; font-family:'PeachCake'; font-size:18.2129px;">t</text>
	
		<text transform="matrix(0.9327 0.6421 -0.5671 0.8237 136.3728 343.1525)" style="fill:#3672FF; font-family:'PeachCake'; font-size:18.2129px;">e</text>
	
		<text transform="matrix(0.9657 0.5912 -0.5221 0.8529 143.9949 348.4142)" style="fill:#3672FF; font-family:'PeachCake'; font-size:18.2129px;">d</text>
	
		<text transform="matrix(0.9886 0.552 -0.4875 0.8731 152.7751 353.7306)" style="fill:#3672FF; font-family:'PeachCake'; font-size:18.2129px;"> </text>
	
		<text transform="matrix(0.9984 0.5342 -0.4718 0.8817 157.0535 356.1056)" style="fill:#3672FF; font-family:'PeachCake'; font-size:18.2129px;">i</text>
	
		<text transform="matrix(1.0145 0.5028 -0.4441 0.896 160.4285 358.0128)" style="fill:#3672FF; font-family:'PeachCake'; font-size:18.2129px;">n</text>
	
		<text transform="matrix(1.0434 0.4397 -0.3883 0.9215 169.0701 362.2032)" style="fill:#3672FF; font-family:'PeachCake'; font-size:18.2129px;"> </text>
	
		<text transform="matrix(1.0627 0.3908 -0.3451 0.9386 173.7673 364.2247)" style="fill:#3672FF; font-family:'PeachCake'; font-size:18.2129px;">L</text>
	
		<text transform="matrix(1.0822 0.3331 -0.2942 0.9558 181.946 367.2267)" style="fill:#3672FF; font-family:'PeachCake'; font-size:18.2129px;">o</text>
	
		<text transform="matrix(1.0981 0.2763 -0.244 0.9698 190.0857 369.7355)" style="fill:#3672FF; font-family:'PeachCake'; font-size:18.2129px;">v</text>
	
		<text transform="matrix(1.1114 0.2168 -0.1915 0.9815 198.657 371.8966)" style="fill:#3672FF; font-family:'PeachCake'; font-size:18.2129px;">e</text>
	
		<text transform="matrix(1.1191 0.1727 -0.1526 0.9883 207.6433 373.6027)" style="fill:#3672FF; font-family:'PeachCake'; font-size:18.2129px;">,</text>
	
		<text transform="matrix(1.1233 0.1426 -0.1259 0.992 211.6287 374.2267)" style="fill:#3672FF; font-family:'PeachCake'; font-size:18.2129px;"> </text>
	
		<text transform="matrix(1.1289 0.0881 -0.0778 0.997 216.7029 374.9415)" style="fill:#3672FF; font-family:'PeachCake'; font-size:18.2129px;">B</text>
	
		<text transform="matrix(1.132 0.0256 -0.0226 0.9997 227.6863 375.7462)" style="fill:#3672FF; font-family:'PeachCake'; font-size:18.2129px;">r</text>
	
		<text transform="matrix(1.1318 -0.0351 0.031 0.9995 234.8435 375.9493)" style="fill:#3672FF; font-family:'PeachCake'; font-size:18.2129px;">a</text>
	
		<text transform="matrix(1.1275 -0.1047 0.0925 0.9957 245.1794 375.6144)" style="fill:#3672FF; font-family:'PeachCake'; font-size:18.2129px;">n</text>
	
		<text transform="matrix(1.1194 -0.1704 0.1505 0.9886 254.6931 374.7257)" style="fill:#3672FF; font-family:'PeachCake'; font-size:18.2129px;">c</text>
	
		<text transform="matrix(1.1066 -0.2401 0.212 0.9773 263.9412 373.339)" style="fill:#3672FF; font-family:'PeachCake'; font-size:18.2129px;">h</text>
	
		<text transform="matrix(1.0946 -0.2897 0.2559 0.9667 274.4109 370.9904)" style="fill:#3672FF; font-family:'PeachCake'; font-size:18.2129px;">i</text>
	
		<text transform="matrix(1.082 -0.3338 0.2948 0.9555 278.2556 370.0304)" style="fill:#3672FF; font-family:'PeachCake'; font-size:18.2129px;">n</text>
	
		<text transform="matrix(1.0608 -0.3959 0.3496 0.9369 287.3865 367.2169)" style="fill:#3672FF; font-family:'PeachCake'; font-size:18.2129px;">g</text>
	
		<text transform="matrix(1.0426 -0.4416 0.39 0.9208 296.5896 363.7277)" style="fill:#3672FF; font-family:'PeachCake'; font-size:18.2129px;"> </text>
	
		<text transform="matrix(1.0313 -0.4674 0.4128 0.9108 301.1316 361.799)" style="fill:#3672FF; font-family:'PeachCake'; font-size:18.2129px;">i</text>
	
		<text transform="matrix(1.0434 -0.4399 0.3885 0.9214 304.4099 360.0773)" style="fill:#3672FF; font-family:'PeachCake'; font-size:18.2129px;">n</text>
	
		<text transform="matrix(0.9961 -0.5384 0.4755 0.8797 313.3591 356.1769)" style="fill:#3672FF; font-family:'PeachCake'; font-size:18.2129px;">t</text>
	
		<text transform="matrix(0.9632 -0.5952 0.5257 0.8507 320.655 352.2296)" style="fill:#3672FF; font-family:'PeachCake'; font-size:18.2129px;">o</text>
	
		<text transform="matrix(0.9371 -0.6356 0.5614 0.8276 327.8279 347.756)" style="fill:#3672FF; font-family:'PeachCake'; font-size:18.2129px;"> </text>
	
		<text transform="matrix(0.9064 -0.6787 0.5994 0.8005 332.1062 344.9269)" style="fill:#3672FF; font-family:'PeachCake'; font-size:18.2129px;">T</text>
	
		<text transform="matrix(0.8666 -0.7288 0.6437 0.7653 340.3757 338.7013)" style="fill:#3672FF; font-family:'PeachCake'; font-size:18.2129px;">o</text>
	
		<text transform="matrix(0.8106 -0.7906 0.6982 0.7159 347.1287 333.1847)" style="fill:#3672FF; font-family:'PeachCake'; font-size:18.2129px;">m</text>
	
		<text transform="matrix(0.7494 -0.8488 0.7496 0.6618 358.3767 322.0197)" style="fill:#3672FF; font-family:'PeachCake'; font-size:18.2129px;">o</text>
	
		<text transform="matrix(0.7078 -0.8839 0.7806 0.6251 363.9851 315.6437)" style="fill:#3672FF; font-family:'PeachCake'; font-size:18.2129px;">r</text>
	
		<text transform="matrix(0.668 -0.9143 0.8074 0.59 368.4275 310.0997)" style="fill:#3672FF; font-family:'PeachCake'; font-size:18.2129px;">r</text>
	
		<text transform="matrix(0.6227 -0.9457 0.8352 0.5499 372.6248 304.3829)" style="fill:#3672FF; font-family:'PeachCake'; font-size:18.2129px;">o</text>
	
		<text transform="matrix(0.5577 -0.9854 0.8703 0.4926 377.45 297.1681)" style="fill:#3672FF; font-family:'PeachCake'; font-size:18.2129px;">w</text>
	
		<text transform="matrix(0.5019 -1.015 0.8964 0.4432 383.5544 286.171)" style="fill:#3672FF; font-family:'PeachCake'; font-size:18.2129px;"> </text>
	
		<text transform="matrix(0.4701 -1.0301 0.9097 0.4152 385.7595 281.7179)" style="fill:#3672FF; font-family:'PeachCake'; font-size:18.2129px;"> </text>
	
		<text transform="matrix(0.4379 -1.0442 0.9222 0.3867 387.8376 277.171)" style="fill:#3672FF; font-family:'PeachCake'; font-size:18.2129px;"> </text>
	
		<text transform="matrix(0.4056 -1.0572 0.9337 0.3582 389.7712 272.5626)" style="fill:#3672FF; font-family:'PeachCake'; font-size:18.2129px;"> </text>
</g>
</svg>
