<?xml version="1.0" encoding="utf-8"?>
<!-- Generator: Adobe Illustrator 24.3.0, SVG Export Plug-In . SVG Version: 6.00 Build 0)  -->
<svg version="1.1" id="Layer_1" xmlns="http://www.w3.org/2000/svg" xmlns:xlink="http://www.w3.org/1999/xlink" x="0px" y="0px"
	 viewBox="0 0 470 417" style="enable-background:new 0 0 470 417;" xml:space="preserve">
<g>
	<g>
		<g>
			<g>
				<linearGradient id="SVGID_1_" gradientUnits="userSpaceOnUse" x1="171.0352" y1="280.8897" x2="171.0352" y2="43.5862">
					<stop  offset="0" style="stop-color:#193F99"/>
					<stop  offset="1" style="stop-color:#3672FF"/>
				</linearGradient>
				<path style="fill:url(#SVGID_1_);" d="M195.13,63.51c0,13.31-10.79,24.09-24.09,24.09c-13.31,0-24.09-10.79-24.09-24.09
					c0-13.31,10.79-24.09,24.09-24.09C184.34,39.41,195.13,50.2,195.13,63.51z"/>
			</g>
			<linearGradient id="SVGID_2_" gradientUnits="userSpaceOnUse" x1="171.0355" y1="280.8901" x2="171.0355" y2="43.5863">
				<stop  offset="0" style="stop-color:#193F99"/>
				<stop  offset="1" style="stop-color:#3672FF"/>
			</linearGradient>
			<path style="fill:url(#SVGID_2_);" d="M210.95,242.8c-11.47-21.08-27.6-39.19-41.25-58.93c-7.19-10.4-13.88-21.84-14.62-34.46
				c0,0-9.6-34.64,42.77-52.31c-15.36-2.11-31.29-0.02-45.09,6.96c-17.76,8.99-31.48,26.3-34.59,45.96
				c-5.18,32.68,17.87,62.84,41.95,85.54c24.08,22.7,51.97,44.68,61.29,76.43C228.91,289.21,222.42,263.88,210.95,242.8z"/>
		</g>
		<g>
			<g>
				
					<linearGradient id="SVGID_3_" gradientUnits="userSpaceOnUse" x1="222.9938" y1="280.8897" x2="222.9938" y2="43.5862" gradientTransform="matrix(-1 0 0 1 538.0667 0)">
					<stop  offset="0" style="stop-color:#193F99"/>
					<stop  offset="1" style="stop-color:#3672FF"/>
				</linearGradient>
				<path style="fill:url(#SVGID_3_);" d="M290.98,63.51c0,13.31,10.79,24.09,24.09,24.09s24.09-10.79,24.09-24.09
					c0-13.31-10.79-24.09-24.09-24.09S290.98,50.2,290.98,63.51z"/>
			</g>
			
				<linearGradient id="SVGID_4_" gradientUnits="userSpaceOnUse" x1="222.9938" y1="280.8901" x2="222.9938" y2="43.5863" gradientTransform="matrix(-1 0 0 1 538.0667 0)">
				<stop  offset="0" style="stop-color:#193F99"/>
				<stop  offset="1" style="stop-color:#3672FF"/>
			</linearGradient>
			<path style="fill:url(#SVGID_4_);" d="M275.16,242.8c11.47-21.08,27.6-39.19,41.25-58.93c7.19-10.4,13.89-21.84,14.62-34.46
				c0,0,9.6-34.64-42.77-52.31c15.36-2.11,31.29-0.02,45.09,6.96c17.76,8.99,31.48,26.3,34.59,45.96
				c5.18,32.68-17.87,62.84-41.95,85.54c-24.08,22.7-51.97,44.68-61.29,76.43C257.2,289.21,263.69,263.88,275.16,242.8z"/>
		</g>
	</g>
	<g>
		<linearGradient id="SVGID_5_" gradientUnits="userSpaceOnUse" x1="243.0541" y1="-28.3219" x2="243.0541" y2="348.5562">
			<stop  offset="0" style="stop-color:#FFA905"/>
			<stop  offset="1" style="stop-color:#FFEA00"/>
		</linearGradient>
		<path style="fill:url(#SVGID_5_);" d="M284.91,88.69C266.48,100,252,129.53,244.5,148.42c-0.45,1.13-2.31,1.13-2.76,0
			c-7.54-18.87-22.08-48.38-40.54-59.65c-1.17-0.72-2.71,0.34-2.2,1.49c26.43,59.26,23.05,106.13,0.62,182.86
			c-0.4,1.35,1.72,2.15,2.65,0.99c15.83-19.77,29.31-38.19,39.55-62.7c0.46-1.11,2.29-1.11,2.76,0
			c10.29,24.49,23.81,42.87,39.69,62.61c0.93,1.15,3.04,0.35,2.64-1c-22.6-76.68-26.09-123.54,0.21-182.87
			C287.62,89.02,286.08,87.97,284.91,88.69z"/>
		<linearGradient id="SVGID_6_" gradientUnits="userSpaceOnUse" x1="243.0526" y1="-28.3232" x2="243.0526" y2="348.5613">
			<stop  offset="0" style="stop-color:#FFA905"/>
			<stop  offset="1" style="stop-color:#FFEA00"/>
		</linearGradient>
		<path style="fill:url(#SVGID_6_);" d="M258.94,88.47c0.01,8.77-7.09,15.89-15.87,15.9c-8.77,0.01-15.89-7.1-15.9-15.87
			c-0.01-8.77,7.09-15.89,15.87-15.9C251.81,72.6,258.93,79.7,258.94,88.47z"/>
	</g>
</g>
<g>
	<text transform="matrix(1.1323 0 0 1 88.6566 389.1364)" style="fill:#FFEA00; font-family:'PeachCake'; font-size:18.2129px;">Rooted in Love, Branching into Tomorrow</text>
</g>
<text transform="matrix(1.1323 0 0 1 25.6431 366.8561)" style="fill:#3672FF; font-family:'Constantia-Bold'; font-size:34.1493px; letter-spacing:1.77;">EVERGREEN HARMONY</text>
</svg>
