<?xml version="1.0" encoding="utf-8"?>
<!-- Generator: Adobe Illustrator 24.3.0, SVG Export Plug-In . SVG Version: 6.00 Build 0)  -->
<svg version="1.1" id="Layer_1" xmlns="http://www.w3.org/2000/svg" xmlns:xlink="http://www.w3.org/1999/xlink" x="0px" y="0px"
	 viewBox="0 0 470 417" style="enable-background:new 0 0 470 417;" xml:space="preserve">
<g>
	<g>
		<g>
			<g>
				<g>
					<path style="fill:#002452;" d="M332.43,230.48l-96.73,96.73L106.74,198.25c-26.71-26.71-26.71-70.02,0-96.73l0,0
						c26.71-26.71,70.02-26.71,96.73,0L332.43,230.48z"/>
					<path style="fill:#00CFE7;" d="M139.32,230.48l96.73,96.73l127.2-127.2c26.71-26.71,26.71-70.02,0-96.73l0,0
						c-26.71-26.71-70.02-26.71-96.73,0L139.32,230.48z"/>
					<path style="fill:#B17FE9;" d="M139.32,230.48l96.73,96.73l48.05-48.05c26.71-26.71,26.71-70.02,0-96.73h0
						c-26.71-26.71-70.02-26.71-96.73,0L139.32,230.48z"/>
					<path style="fill:#002452;" d="M178.74,38.48c0,15.5-12.56,28.06-28.06,28.06c-15.5,0-28.06-12.56-28.06-28.06
						c0-15.5,12.56-28.06,28.06-28.06C166.18,10.42,178.74,22.98,178.74,38.48z"/>
					<path style="fill:#B17FE9;" d="M262.93,76.05c0,15.5-12.56,28.06-28.06,28.06S206.8,91.55,206.8,76.05
						c0-15.5,12.56-28.06,28.06-28.06S262.93,60.55,262.93,76.05z"/>
					<circle style="fill:#00CFE7;" cx="319.05" cy="38.48" r="28.06"/>
				</g>
			</g>
		</g>
	</g>
	<g>
		<text transform="matrix(1.1323 0 0 1 80.6018 401.4995)" style="fill:#B17FE9; font-family:'PeachCake'; font-size:18.2129px;">Rooted in Love, Branching into Tomorrow</text>
	</g>
	
		<text transform="matrix(1.1323 0 0 1 17.5886 380.2192)" style="fill:#00CFE7; font-family:'Constantia-Bold'; font-size:34.1493px; letter-spacing:1.77;">EVERGREEN HARMONY</text>
</g>
</svg>
