<?xml version="1.0" encoding="utf-8"?>
<!-- Generator: Adobe Illustrator 24.3.0, SVG Export Plug-In . SVG Version: 6.00 Build 0)  -->
<svg version="1.1" id="Layer_1" xmlns="http://www.w3.org/2000/svg" xmlns:xlink="http://www.w3.org/1999/xlink" x="0px" y="0px"
	 viewBox="0 0 470 417" style="enable-background:new 0 0 470 417;" xml:space="preserve">
<g>
	<path style="fill:#0073B3;" d="M369.76,242.66l-4.64,7.63c-1.44,2.53-3.2,4.9-4.95,7.25c-1.77,2.34-3.41,4.7-5.26,6.91
		c-3.87,4.32-7.49,8.7-11.77,12.45c-2.08,1.9-4.03,3.92-6.24,5.63l-6.55,5.14c-8.97,6.44-18.25,11.98-28.12,15.85
		c-4.75,2.17-9.87,3.55-14.72,5.13c-2.47,0.66-5.01,1.18-7.49,1.75l-3.69,0.8c-1.25,0.21-2.53,0.34-3.77,0.53l-7.42,0.94l-7.43,0.29
		l-3.64,0.13l-3.66-0.2l-7.19-0.42c-0.71-0.04-1.27-0.65-1.22-1.38c0.02-0.51,0.34-0.92,0.79-1.11l0.12-0.05l6.45-2.71l3.17-1.33
		l3.06-1.62l5.96-3.19l5.6-3.71c0.93-0.62,1.85-1.22,2.73-1.86l2.6-2.05c1.68-1.4,3.41-2.71,5.04-4.11c3.1-3.09,6.29-5.78,8.94-9.12
		c5.63-6.17,10.04-13.23,13.69-20.19l2.5-5.32c0.84-1.72,1.36-3.65,2.06-5.42c1.46-3.51,2.18-7.31,3.17-10.82
		c0.4-1.82,0.6-3.69,0.92-5.47s0.61-3.55,0.65-5.36l0.33-5.31c0.02-1.77-0.12-3.55-0.16-5.26l-0.07-2.55
		c-0.04-0.87-0.23-1.73-0.32-2.57l-0.65-5.01c-0.27-1.67-0.75-3.31-1.11-4.91s-0.66-3.17-1.2-4.76
		c-3.85-12.46-10.66-22.66-18.85-30.03C274.37,155.47,268.14,139,269,122.74c13.74,28.27,36.75,43.78,55.42,39.86
		c11.8-2.48,19.1-12.14,22.66-16.85c19.91-26.36,10.05-61.08,8.28-66.97c1.95,1.26,4.37,3,6.94,5.3
		c7.98,7.17,13.38,16.11,16.21,25.69l3.71,12.76c7.59,25.97,8.38,52.92,3.26,77.32c-0.6,3.06-1.46,6.08-2.27,9.04
		c-0.86,3-1.59,5.94-2.57,8.85l-3.24,8.59c-0.58,1.4-1.05,2.83-1.7,4.19l-1.97,4.1C372.46,237.36,371.18,240.07,369.76,242.66z"/>
	
		<ellipse transform="matrix(0.1625 -0.9867 0.9867 0.1625 137.0838 420.94)" style="fill:#0073B3;" cx="316.51" cy="129.72" rx="28.34" ry="28.35"/>
	<path style="fill:#FF6700;" d="M272.51,26.51l6.22,1.82c2.04,0.53,4.04,1.32,6.01,2.11c1.97,0.8,3.93,1.51,5.83,2.38
		c3.76,1.9,7.51,3.61,10.94,5.9c1.73,1.1,3.5,2.08,5.12,3.31l4.83,3.62c6.2,5.07,11.83,10.54,16.4,16.73
		c2.41,2.92,4.34,6.25,6.37,9.35c0.93,1.61,1.77,3.29,2.63,4.92l1.26,2.44c0.38,0.84,0.71,1.71,1.08,2.54l2.06,5.02l1.6,5.16
		l0.78,2.52l0.55,2.6l1.06,5.11c0.1,0.5-0.22,1.01-0.74,1.11c-0.36,0.08-0.71-0.06-0.92-0.35l-0.06-0.07l-3.11-4.01l-1.53-1.97
		l-1.71-1.84l-3.36-3.57l-3.65-3.23c-0.61-0.54-1.2-1.07-1.82-1.57l-1.93-1.44c-1.3-0.92-2.54-1.88-3.83-2.76
		c-2.75-1.59-5.23-3.32-8.07-4.55c-5.39-2.79-11.16-4.55-16.73-5.8l-4.2-0.75c-1.36-0.27-2.81-0.27-4.19-0.43
		c-2.73-0.36-5.53-0.15-8.18-0.19c-1.35,0.06-2.7,0.27-4.01,0.38s-2.6,0.24-3.88,0.55l-3.78,0.76c-1.24,0.32-2.46,0.75-3.66,1.1
		l-1.77,0.53c-0.6,0.19-1.17,0.49-1.74,0.71l-3.39,1.4c-1.12,0.5-2.18,1.15-3.23,1.7c-1.06,0.55-2.1,1.06-3.11,1.74
		c-8.01,5.04-13.87,11.73-17.5,18.85c-5.8,11.36-16.17,18.83-27.73,21.28c17.23-14.95,23.77-33.99,17.51-46.33
		c-3.96-7.81-12.1-11.1-16.07-12.71c-22.22-9-44.7,4.44-48.49,6.79c0.52-1.61,1.28-3.63,2.41-5.86c3.52-6.94,8.78-12.41,14.96-16.19
		l8.25-5c16.77-10.2,35.51-15.82,53.57-16.83c2.25-0.16,4.53-0.12,6.76-0.11c2.26,0.04,4.47,0,6.68,0.14l6.63,0.66
		c1.09,0.14,2.18,0.21,3.26,0.4l3.24,0.61C268.29,25.61,270.43,26,272.51,26.51z"/>
	<path style="fill:#FF6700;" d="M208.4,65.11c11.01,2.78,17.69,13.95,14.92,24.97c-2.78,11.01-13.95,17.69-24.97,14.92
		c-11.01-2.78-17.69-13.95-14.92-24.97C186.21,69.02,197.39,62.34,208.4,65.11z"/>
	<path style="fill:#00CA9D;" d="M212.86,294.87l-4.7-0.03c-1.53,0.03-3.08-0.12-4.61-0.28c-1.54-0.17-3.04-0.27-4.54-0.51
		c-3-0.58-5.95-1.03-8.8-1.95c-1.42-0.43-2.85-0.76-4.23-1.29l-4.09-1.57c-5.33-2.31-10.34-5-14.75-8.41
		c-2.26-1.56-4.27-3.49-6.29-5.26c-0.97-0.94-1.88-1.94-2.81-2.91l-1.36-1.45c-0.43-0.51-0.84-1.05-1.25-1.56l-2.43-3.09l-2.14-3.28
		l-1.04-1.61l-0.9-1.7l-1.75-3.36c-0.17-0.33-0.05-0.75,0.29-0.92c0.24-0.13,0.51-0.1,0.71,0.06l0.05,0.04l2.96,2.18l1.46,1.07
		l1.56,0.95l3.05,1.83l3.19,1.53c0.53,0.25,1.05,0.5,1.58,0.73l1.63,0.62c1.09,0.38,2.14,0.81,3.22,1.16
		c2.23,0.56,4.31,1.28,6.53,1.57c4.31,0.88,8.68,0.96,12.81,0.73l3.08-0.31c1-0.08,2.02-0.37,3-0.53c1.98-0.29,3.89-0.99,5.74-1.49
		c0.93-0.31,1.83-0.73,2.72-1.06c0.89-0.34,1.76-0.68,2.6-1.15l2.48-1.28c0.8-0.47,1.57-1.01,2.33-1.49l1.13-0.72
		c0.38-0.25,0.72-0.57,1.08-0.84l2.08-1.65c0.68-0.57,1.29-1.23,1.92-1.83c0.63-0.6,1.25-1.15,1.82-1.83
		c4.58-5.1,7.34-10.93,8.46-16.62c1.79-9.07,7.54-16.33,15.11-20.33c-9.05,13.84-9.83,28.41-3.02,35.78
		c4.31,4.66,10.64,5.34,13.72,5.67c17.27,1.86,30.28-11.96,32.46-14.35c-0.04,1.22-0.17,2.78-0.52,4.57
		c-1.08,5.54-3.66,10.39-7.22,14.26l-4.76,5.12c-9.67,10.44-21.62,18.08-34.01,22.36c-1.54,0.56-3.14,0.98-4.69,1.42
		c-1.58,0.42-3.11,0.89-4.69,1.23l-4.75,0.86c-0.79,0.12-1.56,0.29-2.35,0.37l-2.38,0.22C215.98,294.66,214.41,294.81,212.86,294.87
		z"/>
	<path style="fill:#00CA9D;" d="M249.9,255.24c-8.23,0.25-15.1-6.22-15.35-14.45s6.22-15.1,14.45-15.35s15.1,6.22,15.35,14.45
		S258.13,254.99,249.9,255.24z"/>
	<path style="fill:#E6D000;" d="M220.88,136.49l7.23,2.49c2.37,0.74,4.68,1.79,6.97,2.82c2.28,1.06,4.55,2,6.73,3.14
		c4.32,2.45,8.64,4.68,12.55,7.58c1.97,1.4,4.01,2.65,5.84,4.19l5.49,4.54c7.02,6.33,13.34,13.08,18.36,20.63
		c2.68,3.57,4.76,7.6,6.97,11.38c1,1.95,1.89,3.97,2.82,5.94l1.34,2.94c0.4,1.01,0.75,2.05,1.12,3.06l2.14,6.03l1.59,6.16l0.77,3.02
		l0.5,3.09l0.96,6.08c0.09,0.6-0.31,1.18-0.93,1.27c-0.43,0.07-0.83-0.12-1.07-0.46l-0.06-0.09l-3.44-4.9l-1.69-2.41l-1.91-2.27
		l-3.75-4.4l-4.12-4.01c-0.69-0.67-1.35-1.32-2.05-1.95l-2.19-1.81c-1.47-1.15-2.89-2.36-4.35-3.47c-3.15-2.03-5.97-4.21-9.25-5.82
		c-6.18-3.59-12.89-5.99-19.37-7.78l-4.9-1.12c-1.59-0.39-3.3-0.48-4.91-0.74c-3.2-0.58-6.51-0.5-9.62-0.69
		c-1.59-0.01-3.2,0.17-4.74,0.22c-1.54,0.06-3.08,0.14-4.6,0.43l-4.5,0.69c-1.48,0.3-2.94,0.75-4.37,1.09l-2.12,0.52
		c-0.72,0.19-1.41,0.51-2.09,0.73l-4.07,1.46c-1.35,0.53-2.63,1.23-3.91,1.82c-1.28,0.59-2.53,1.12-3.76,1.87
		c-9.72,5.49-17.01,13.03-21.68,21.22c-7.48,13.05-20.12,21.26-33.87,23.49c21.14-16.63,29.93-38.68,23.26-53.58
		c-4.22-9.42-13.62-13.77-18.2-15.88c-25.66-11.86-52.9,2.69-57.5,5.24c0.7-1.86,1.71-4.2,3.17-6.77
		c4.54-7.97,11.04-14.12,18.54-18.22l10-5.42c20.33-11.07,42.73-16.62,64.06-16.78c2.66-0.06,5.35,0.12,7.97,0.26
		c2.66,0.17,5.26,0.25,7.86,0.54l7.77,1.15c1.28,0.23,2.56,0.37,3.81,0.66l3.79,0.9C215.96,135.2,218.45,135.77,220.88,136.49z"/>
	<ellipse style="fill:#E6D000;" cx="136.11" cy="201.53" rx="24.25" ry="24.25"/>
</g>
<text transform="matrix(1.1323 0 0 1 76.7328 388.5474)" style="fill:#00CA9D; font-family:'PeachCake'; font-size:18.2129px;">Rooted in Love, Branching into Tomorrow</text>
<text transform="matrix(1.0126 0 0 1 18.8405 364.3057)" style="fill:#FF6700; font-family:'Constantia-Bold'; font-size:34.9889px; letter-spacing:0.99;">EVERGREEN HARMONY</text>
</svg>
