<svg xmlns:ns0="http://www.w3.org/2000/svg" version="1.1" id="Layer_1" x="0px" y="0px" viewBox="50 0 400 400" style="enable-background:new 0 0 470 417;" xml:space="preserve">
<title>Logo: main logo fmly4.svg</title><g>
	<path style="fill:#FFCE00;" d="M302.04,146.34h-37.17c0-29.33-21.95-53.13-49.01-53.13v-40.3   C263.45,52.92,302.04,94.75,302.04,146.34z"></path>
	<ellipse style="fill:#FFCE00;" cx="298.43" cy="56.83" rx="19.14" ry="20.75"></ellipse>
	<path style="fill:#23D513;" d="M215.86,94.42v40.3c-27.06,0-49.01,23.79-49.01,53.13h-37.17   C129.68,136.25,168.27,94.42,215.86,94.42z"></path>
	<ellipse style="fill:#23D513;" cx="133.29" cy="98.34" rx="19.14" ry="20.75"></ellipse>
	<path style="fill: rgb(244, 67, 54);" d="M167.96,187.85h37.17c0,29.33,21.95,53.13,49.01,53.13v40.3   C206.55,281.27,167.96,239.44,167.96,187.85z" class=""></path>
	<ellipse style="fill:#E33056;" cx="171.58" cy="277.36" rx="19.14" ry="20.75"></ellipse>
	<path style="fill: rgb(63, 81, 181);" d="M254.15,239.77v-40.3c27.06,0,49.01-23.79,49.01-53.13h37.17   C340.33,197.94,301.74,239.77,254.15,239.77z" class=""></path>
	<ellipse style="fill:#4399DE;" cx="336.72" cy="235.85" rx="19.14" ry="20.75"></ellipse>
</g>
<g>
	<text transform="matrix(1.1323 0 0 1 80.606 375.836)" style="fill:#E33056; font-family:'PeachCake'; font-size:18.2129px;">Rooted in Love, Branching into Tomorrow</text>
</g>
<g>
	<text transform="matrix(1.1323 0 0 1 17.5926 354.5557)"><tspan x="0" y="0" style="fill:#23D513; font-family:'Constantia-Bold'; font-size:34.1493px; letter-spacing:1.77;">EVERGREEN </tspan><tspan x="210" y="0" style="fill:#4399DE; font-family:'Constantia-Bold'; font-size:34.1493px; letter-spacing:1.77;">HARMONY</tspan></text>
</g>
</svg>