<svg xmlns:ns0="http://www.w3.org/2000/svg" version="1.1" id="Layer_1" x="0px" y="0px" viewBox="50 0 400 400" style="enable-background:new 0 0 470 417;" xml:space="preserve">
<title>Logo: fmly-05 main logo.svg</title><g>
	<g>
		<linearGradient id="SVGID_1_" gradientUnits="userSpaceOnUse" x1="235.0007" y1="57.5733" x2="235.0007" y2="308.2674">
			<stop offset="0" style="stop-color:#DB01FF"></stop>
			<stop offset="1" style="stop-color:#8B00D0"></stop>
		</linearGradient>
		<path style="fill: rgb(233, 30, 99);" d="M334.3,109.44c-22.24-13.88-52.43-13.98-74.6,0.03c-9.5,6.02-17.32,14.19-24.71,22.75    c-7.37-8.55-15.2-16.73-24.71-22.75c-22.16-14.01-52.34-13.91-74.59-0.03c-22.24,13.87-35.58,40.72-33.53,66.86    c1.98,25.32,16.89,47.72,33.19,67.19c7.79,9.3,16.04,18.22,24.66,26.76c7.59-14.89,10.08-35.17,5.29-51.62    c-6.23-21.36-12.14-38.94-31.16-50.14c-0.13-0.08-0.07-0.3,0.09-0.27c26.24,4.15,46.89,27.26,54.98,45.21    c0.06,0.1,0.19,0.11,0.25,0.01c7.56-12.99,25.23-22.5,39.05-28.65c0.13-0.07,0.26,0.1,0.17,0.22    c-10.89,14.55-18.82,31.19-23.64,48.7c7.55,7.3,17.84,11.79,29.18,11.79c11.94,0,22.71-4.98,30.36-12.95    c-4.85-17.09-12.66-33.31-23.31-47.53c-0.09-0.12,0.02-0.29,0.17-0.22c13.81,6.15,31.48,15.66,39.04,28.65    c0.07,0.1,0.2,0.09,0.25-0.01c8.09-17.96,28.74-41.06,54.99-45.21c0.16-0.03,0.22,0.19,0.09,0.27    c-19.01,11.19-24.93,28.77-31.16,50.14c-4.79,16.45-2.31,36.72,5.28,51.62c8.63-8.53,16.88-17.45,24.67-26.76    c16.3-19.47,31.2-41.87,33.19-67.19C369.88,150.17,356.54,123.31,334.3,109.44z M192.08,183.18c-8.32,0-15.08-6.75-15.08-15.08    s6.76-15.08,15.08-15.08c8.33,0,15.08,6.75,15.08,15.08S200.41,183.18,192.08,183.18z M247.66,222.87c0,7.41-6,13.41-13.41,13.41    c-7.4,0-13.4-6-13.4-13.41c0-7.4,6-13.4,13.4-13.4C241.66,209.47,247.66,215.47,247.66,222.87z M277.91,183.18    c-8.33,0-15.08-6.75-15.08-15.08s6.75-15.08,15.08-15.08c8.33,0,15.08,6.75,15.08,15.08S286.25,183.18,277.91,183.18z     M268.7,251.45c-7.61,10.84-20.21,17.92-34.45,17.92c-13.49,0-25.51-6.35-33.19-16.24c-2.52,17.94-1.87,36.34,2.09,53.99    c10.27,7.59,20.9,14.68,31.85,21.22c10.96-6.54,21.59-13.63,31.86-21.22C270.94,288.92,271.51,269.93,268.7,251.45z" class=""></path>
	</g>
	<g>
		<g>
			<path style="fill:#FFCE00;" d="M276.31,227.31c0,8.99-2.81,17.31-7.61,24.14c-7.61,10.84-20.21,17.92-34.45,17.92     c-13.49,0-25.51-6.35-33.19-16.24c-5.56-7.12-8.87-16.08-8.87-25.82c0-4.14,0.61-8.14,1.74-11.93     c2.08,7.06,5.98,13.36,11.14,18.33c7.55,7.3,17.84,11.79,29.18,11.79c11.94,0,22.71-4.98,30.36-12.95     c4.58-4.78,8.04-10.64,9.97-17.17C275.7,219.17,276.31,223.17,276.31,227.31z"></path>
		</g>
	</g>
</g>
<text transform="matrix(1.1323 0 0 1 80.6021 358.5199)" style="fill:#FDE803; font-family:'PeachCake'; font-size:18.2129px;">Rooted in Love, Branching into Tomorrow</text>
<ellipse transform="matrix(0.7071 -0.7071 0.7071 0.7071 -78.6016 227.2389)" style="fill:none;" cx="235" cy="208.5" rx="165.15" ry="165.15"></ellipse>
<text transform="matrix(0.4379 -1.0442 0.9222 0.3867 77.9326 155.9959)" style="fill:#FDE803; font-family:'Constantia-Bold'; font-size:36px;">E</text>
<text transform="matrix(0.5881 -0.9676 0.8545 0.5194 88.1056 132.201)" style="fill:#FDE803; font-family:'Constantia-Bold'; font-size:36px;">V</text>
<text transform="matrix(0.7216 -0.8726 0.7706 0.6373 100.5152 111.9399)" style="fill:#FDE803; font-family:'Constantia-Bold'; font-size:36px;">E</text>
<text transform="matrix(0.8484 -0.7499 0.6623 0.7492 115.9351 93.2669)" style="fill:#FDE803; font-family:'Constantia-Bold'; font-size:36px;">R</text>
<text transform="matrix(0.9594 -0.6014 0.5311 0.8473 136.3638 75.3724)" style="fill:#FDE803; font-family:'Constantia-Bold'; font-size:36px;">G</text>
<text transform="matrix(1.0441 -0.438 0.3868 0.9221 159.0431 61.2658)" style="fill:#FDE803; font-family:'Constantia-Bold'; font-size:36px;">R</text>
<text transform="matrix(1.0988 -0.2735 0.2416 0.9704 184.1902 50.9455)" style="fill:#FDE803; font-family:'Constantia-Bold'; font-size:36px;">E</text>
<text transform="matrix(1.127 -0.1097 0.0968 0.9953 207.7385 45.1827)" style="fill:#FDE803; font-family:'Constantia-Bold'; font-size:36px;">E</text>
<text transform="matrix(1.1303 0.068 -0.06 0.9982 231.8116 42.8157)" style="fill:#FDE803; font-family:'Constantia-Bold'; font-size:36px;">N</text>
<text transform="matrix(1.1144 0.2007 -0.1772 0.9842 259.3266 45.045)" style="fill:#FDE803; font-family:'Constantia-Bold'; font-size:36px;"> </text>
<text transform="matrix(1.0756 0.354 -0.3126 0.9499 270.4968 46.3095)" style="fill:#FDE803; font-family:'Constantia-Bold'; font-size:36px;">H</text>
<text transform="matrix(0.9959 0.5389 -0.4759 0.8795 303.4545 57.7607)" style="fill:#FDE803; font-family:'Constantia-Bold'; font-size:36px;">A</text>
<text transform="matrix(0.9003 0.6867 -0.6064 0.7951 325.0045 69.4179)" style="fill:#FDE803; font-family:'Constantia-Bold'; font-size:36px;">R</text>
<text transform="matrix(0.7597 0.8397 -0.7415 0.6709 346.6487 85.6775)" style="fill:#FDE803; font-family:'Constantia-Bold'; font-size:36px;">M</text>
<text transform="matrix(0.5865 0.9686 -0.8554 0.5179 368.9567 110.8137)" style="fill:#FDE803; font-family:'Constantia-Bold'; font-size:36px;">O</text>
<text transform="matrix(0.4136 1.0541 -0.9309 0.3652 383.9391 135.933)" style="fill:#FDE803; font-family:'Constantia-Bold'; font-size:36px;">N</text>
<text transform="matrix(0.2466 1.1051 -0.976 0.2177 393.7558 161.555)" style="fill:#FDE803; font-family:'Constantia-Bold'; font-size:36px;">Y</text>
</svg>