<svg xmlns:ns0="http://www.w3.org/2000/svg" version="1.1" id="Layer_1" x="0px" y="0px" viewBox="50 0 400 400" style="enable-background:new 0 0 470 417;" xml:space="preserve">
<title>Logo: main logo fmly2.svg</title><path style="fill: rgb(244, 67, 54);" d="M195.55,163.05c0-21.93,17.78-39.71,39.71-39.71c21.93,0,39.71,17.78,39.71,39.71  c0,21.93-17.78,39.71-39.71,39.71C213.33,202.76,195.55,184.98,195.55,163.05z" class=""></path>
<g>
	<g>
		<path style="fill:#335BE4;" d="M303.69,168.77c7.44,12.6,18.52,22.7,30.72,30.6c3.45,2.24,7.02,4.28,10.63,6.23    c-8.47-9.3-29.86-35.47-34.22-75.6c-3.45-31.77,7.31-60.74,13.09-73.49c-9.88,11.93-22.56,31.14-26.41,43.03    C290.15,122.24,291.58,148.27,303.69,168.77z"></path>
		<path style="fill:#E9C631;" d="M278.66,201.94c-14.04,4.29-27.03,16.86-34.73,29.36c-5.66,9.18-8.26,19.98-9.07,30.73    c-0.1,1.33-0.17,2.67-0.22,4.01c0.06,1.56,0.22,12.48,0.35,23.67c0.14,0.35,0.21,0.56,0.21,0.56h0c0,0,14.21-38.69,43.75-60.38    c27.63-20.29,55.85-23.05,66.75-23.55c-0.12-0.13-0.27-0.3-0.39-0.43c0,0-8.75-3.67-22.93-5.92    C307.88,197.67,292.7,197.66,278.66,201.94z"></path>
		<path style="fill:#335BE4;" d="M234.64,266.03c-0.05-1.33-0.12-2.67-0.22-4c-0.81-10.75-3.41-21.55-9.07-30.73    c-7.7-12.49-20.49-21.93-34.73-25.49c-29.63-7.39-54.58-3.48-65.4-0.05c-0.16,0.18-0.35,0.39-0.5,0.56    c10.9,0.5,39.12,3.26,66.75,23.55c26.75,19.65,40.92,53.21,43.36,59.39C234.68,278.23,234.58,267.57,234.64,266.03z"></path>
		<path style="fill:#FF41A4;" d="M323.66,57.04c0.08-0.17,0.18-0.37,0.26-0.54c-27.63,10.1-67.12,28.62-89.36,28.09    c-23.21-0.55-61.62-17.86-88.07-28.09c23.74,20.92,61.69,47.42,88.28,47.48C265.32,104.06,299.37,78.88,323.66,57.04z"></path>
		<path style="fill:#E9C631;" d="M165.59,168.77c12.11-20.5,13.54-46.53,6.18-69.23c-3.62-11.19-15.08-29.42-24.9-42.89    c-0.12-0.05-0.25-0.1-0.38-0.14c5.41,10.98,16.93,38.09,13.09,73.49c-4.17,38.4-25.75,66.04-34.87,76.32    c2.84-1.57,7.43-5.18,10.16-6.95C147.07,191.47,158.15,181.38,165.59,168.77z"></path>
	</g>
	<path style="fill:#E9C631;" d="M285.1,257.15c0-10.29,8.35-18.64,18.64-18.64c10.3,0,18.64,8.35,18.64,18.64   c0,10.3-8.35,18.64-18.64,18.64C293.44,275.8,285.1,267.45,285.1,257.15z"></path>
	<path style="fill:#335BE4;" d="M143.49,255.63c0-10.3,8.35-18.64,18.64-18.64c10.3,0,18.64,8.35,18.64,18.64   c0,10.3-8.35,18.64-18.64,18.64C151.84,274.27,143.49,265.92,143.49,255.63z"></path>
	<path style="fill:#335BE4;" d="M322.38,134.34c0-10.3,8.35-18.64,18.64-18.64c10.3,0,18.64,8.35,18.64,18.64   c0,10.29-8.35,18.64-18.64,18.64C330.72,152.98,322.38,144.63,322.38,134.34z"></path>
	<path style="fill:#E9C631;" d="M110.85,134.34c0-10.3,8.35-18.64,18.64-18.64c10.3,0,18.64,8.35,18.64,18.64   c0,10.29-8.35,18.64-18.64,18.64C119.2,152.98,110.85,144.63,110.85,134.34z"></path>
	<circle style="fill:#FF41A4;" cx="234.64" cy="54.48" r="18.64"></circle>
</g>
<text transform="matrix(1.1323 0 0 1 80.8602 377.0831)" style="fill:#FF41A4; font-family:'PeachCake'; font-size:18.2129px;">Rooted in Love, Branching into Tomorrow</text>
<text transform="matrix(1.1323 0 0 1 17.8468 353.8029)" style="fill:#3672FF; font-family:'Constantia-Bold'; font-size:34.1493px; letter-spacing:1.77;">EVERGREEN HARMONY</text>
</svg>