<?xml version="1.0" encoding="utf-8"?>
<!-- Generator: Adobe Illustrator 24.3.0, SVG Export Plug-In . SVG Version: 6.00 Build 0)  -->
<svg version="1.1" id="Layer_1" xmlns="http://www.w3.org/2000/svg" xmlns:xlink="http://www.w3.org/1999/xlink" x="0px" y="0px"
	 viewBox="0 0 595.28 841.89" style="enable-background:new 0 0 595.28 841.89;" xml:space="preserve">
<style type="text/css">
	.st0{fill:#535453;}
</style>
<g>
	<g>
		
			<ellipse transform="matrix(0.7071 -0.7071 0.7071 0.7071 -456.1792 -159.0432)" class="st0" cx="-420.07" cy="471.14" rx="22.76" ry="22.76"/>
		<path class="st0" d="M-393.76,486.8L-393.76,486.8c-4.31,10.29-14.47,17.52-26.32,17.52c-4.04,0-7.89-0.85-11.38-2.37
			c-17.37-6.97-26.89-27.88-28.01-44.77c-0.24-3.59-3.15-6.4-6.75-6.4l0,0c-3.75,0-6.74,3.04-6.78,6.79
			c-0.27,31.48,13.52,56.82,13.52,56.82c-43.91,42.3-4.2,92.02-4.2,92.02c21.71-90.55,84.38-90.77,103.92-88.51l13.5-15.98
			C-368.16,486.34-393.76,486.8-393.76,486.8z"/>
	</g>
	<g>
		
			<ellipse transform="matrix(0.2354 -0.9719 0.9719 0.2354 -942.4503 -116.8634)" class="st0" cx="-545.5" cy="540.57" rx="22.76" ry="22.76"/>
		<path class="st0" d="M-518.78,525.61L-518.78,525.61c6.76,8.88,7.94,21.29,2.01,31.55c-2.02,3.5-4.68,6.41-7.74,8.67
			c-14.72,11.56-37.59,9.34-52.77,1.87c-3.23-1.59-7.12-0.47-8.92,2.64l0,0c-1.87,3.24-0.74,7.36,2.49,9.26
			c27.13,15.98,55.97,16.7,55.97,16.7c14.67,59.18,77.59,49.65,77.59,49.65c-67.56-64.08-36.42-118.46-24.7-134.25l-7.09-19.68
			C-506.38,503.22-518.78,525.61-518.78,525.61z"/>
	</g>
	<g>
		
			<ellipse transform="matrix(0.2203 -0.9754 0.9754 0.2203 -1094.4578 -1.3671)" class="st0" cx="-548.08" cy="683.91" rx="22.76" ry="22.76"/>
		<path class="st0" d="M-547.68,653.29L-547.68,653.29c11.06-1.41,22.4,3.77,28.33,14.03c2.02,3.5,3.21,7.26,3.64,11.03
			c2.65,18.52-10.7,37.22-24.76,46.64c-2.99,2-3.97,5.93-2.17,9.05l0,0c1.87,3.24,6.01,4.32,9.27,2.47
			c27.4-15.5,42.45-40.12,42.45-40.12c58.59,16.88,81.79-42.38,81.79-42.38c-89.28,26.47-120.8-27.69-128.61-45.74l-20.59-3.7
			C-560.87,631.35-547.68,653.29-547.68,653.29z"/>
	</g>
	<g>
		
			<ellipse transform="matrix(0.8682 -0.4962 0.4962 0.8682 -432.0592 -111.1289)" class="st0" cx="-425.24" cy="757.82" rx="22.76" ry="22.76"/>
		<path class="st0" d="M-451.55,742.16L-451.55,742.16c4.31-10.29,14.47-17.52,26.32-17.52c4.04,0,7.89,0.85,11.38,2.37
			c17.37,6.97,26.89,27.88,28.01,44.77c0.24,3.59,3.15,6.4,6.75,6.4l0,0c3.75,0,6.74-3.04,6.78-6.79
			c0.27-31.48-13.52-56.82-13.52-56.82c43.91-42.3,4.2-92.02,4.2-92.02c-21.71,90.55-84.38,90.77-103.92,88.51l-13.5,15.98
			C-477.15,742.61-451.55,742.16-451.55,742.16z"/>
	</g>
	<g>
		
			<ellipse transform="matrix(0.9649 -0.2626 0.2626 0.9649 -191.2649 -54.5668)" class="st0" cx="-299.81" cy="688.39" rx="22.76" ry="22.76"/>
		<path class="st0" d="M-326.53,703.34L-326.53,703.34c-6.76-8.88-7.94-21.29-2.01-31.55c2.02-3.5,4.68-6.41,7.74-8.67
			c14.72-11.56,37.59-9.34,52.77-1.87c3.23,1.59,7.12,0.47,8.92-2.64l0,0c1.87-3.24,0.74-7.36-2.49-9.26
			c-27.13-15.98-55.97-16.7-55.97-16.7c-14.67-59.18-77.59-49.65-77.59-49.65c67.56,64.08,36.42,118.46,24.7,134.25l7.09,19.68
			C-338.93,725.74-326.53,703.34-326.53,703.34z"/>
	</g>
	<g>
		
			<ellipse transform="matrix(9.874482e-03 -1 1 9.874482e-03 -839.3075 242.4501)" class="st0" cx="-297.23" cy="545.04" rx="22.76" ry="22.76"/>
		<path class="st0" d="M-297.63,575.66L-297.63,575.66c-11.06,1.41-22.4-3.77-28.33-14.03c-2.02-3.5-3.21-7.26-3.64-11.03
			c-2.65-18.52,10.7-37.22,24.76-46.64c2.99-2,3.97-5.93,2.17-9.05l0,0c-1.87-3.24-6.01-4.32-9.27-2.47
			c-27.4,15.5-42.45,40.12-42.45,40.12c-58.59-16.88-81.79,42.38-81.79,42.38c89.28-26.47,120.8,27.69,128.61,45.74l20.59,3.7
			C-284.44,597.6-297.63,575.66-297.63,575.66z"/>
	</g>
</g>
<g>
	<path class="st0" d="M357.76,360.22c3.57,1.68,6.28,2.94,8.98,4.23c9.74,4.64,19.36,9.55,29.23,13.9
		c28.96,12.77,59.42,18.68,90.97,19.25c9.22,0.17,16.37-6.06,17-14.57c0.69-9.31-5.37-16.43-15.03-17.56
		c-2.51-0.29-5.05-0.35-7.58-0.45c-17.79-0.71-35.49-2.82-52.15-9.07c-17.32-6.49-33.92-14.86-51.07-21.84
		c-9.93-4.04-20.13-7.86-30.57-10.05c-6.59-1.38-14.64-1.42-20.65,1.17c-16.13,6.95-31.53,7.59-47.35-0.08
		c-2.17-1.05-4.72-1.67-7.13-1.84c-16.01-1.16-30.6,3.65-44.69,10.73c-19.89,10-39.63,20.68-61.7,24.93
		c-15.68,3.02-31.68,4.43-47.56,6.27c-10.09,1.17-17.02,7.92-16.61,16.85c0.43,9.42,7.96,16.38,18.23,15.34
		c17.92-1.81,35.92-3.59,53.58-7c23.2-4.48,44.23-15.16,65.17-25.76c2.92-1.48,5.96-2.74,9.52-4.36c0,9.2,0,17.46,0,25.72
		c0,95.75-0.01,191.49,0.01,287.24c0,13.96,5.91,22.03,19.09,26.36c0.47,0.15,0.88,0.49,1.31,0.74c3.04,0,6.08,0,9.12,0
		c9.7-3.13,17.16-8.66,19.57-19.14c0.67-2.92,0.74-6.02,0.75-9.03c0.04-57.58,0.03-115.15,0.03-172.73c0-2,0-4,0-6.37
		c3.12,0,5.87,0,9.35,0c0,2.21,0,4.33,0,6.46c0,56.39,0.27,112.79-0.18,169.18c-0.12,15.56,4.99,26.44,20.14,31.63
		c3.38,0,6.76,0,10.14,0c15.23-5.07,20.28-16.01,20.24-31.53c-0.3-100.47-0.15-200.95-0.15-301.43
		C357.76,365.3,357.76,363.19,357.76,360.22z"/>
	<path class="st0" d="M508.6,504.21c-2.56-2.08-3.75-4.17-4.27-7.39c-1.39-8.58-6.47-14.51-14.82-16.89
		c-8.26-2.36-15.73-0.35-21.66,6.12c-0.86,0.94-1.08,2.47-1.6,3.72c-0.69-0.62-1.39-1.24-2.08-1.85c0.62-4.22,3.68-6.88,6.73-9.66
		c1.08-0.99,2.4-2.63,2.29-3.86c-0.71-8.2-10.54-15.38-19.68-14.66c-10.04,0.79-17.55,8.82-17.03,18.2
		c9.1,3.42,13.1,7.03,14.25,12.87c-8.93-7.87-17.71-9.58-26.31-5.13c-6.56,3.39-10.81,9.94-10.23,15.72
		c11.47-1.59,19.54,0.46,24.47,6.5c-1.76-0.72-3.11-1.34-4.51-1.82c-12.66-4.42-26.54,0.87-33.16,12.5
		c-1.65,2.89-2.54,5.32,0.73,7.85c1.45,1.12,2.2,3.17,3.26,4.8c-5.85-5.51-12.24-8.47-20.23-6.15c-7.85,2.28-11.47,8.31-12.97,15.72
		c-0.74-1.97-1.42-3.78-2.1-5.59c-0.49,0.16-0.98,0.33-1.47,0.49c0,13.71,0,27.43,0,41.22c0.99,0.18,1.64,0.39,2.29,0.41
		c23.47,0.57,46.94,0.95,70.22-2.79c2.96-0.48,4.87,0.06,7.12,2.08c7.57,6.82,18.19,7.74,26.81,2.74
		c8.45-4.9,12.82-14.3,11.08-24.15c-1.66-9.4-7.73-15.03-16.79-18.56c17.58,1.03,25.91,17.85,17.9,35.71
		c14.75-0.45,28.4-10.97,33.52-25.57C525.75,531.49,521.16,514.4,508.6,504.21z"/>
	<path class="st0" d="M302.73,326.28c25.13,0.14,45.91-20.59,45.78-45.67c-0.13-25-20.58-45.37-45.55-45.38
		c-24.99-0.01-45.37,20.37-45.42,45.4C257.5,305.7,277.74,326.14,302.73,326.28z M339.94,279.64c-2.73,11.67-8.77,19.79-19.09,24.39
		c-11.51,5.13-22.48,3.78-33.58-3.71C305,293.36,322.02,286.67,339.94,279.64z"/>
	<path class="st0" d="M229.36,427.63c-2.11,2.6-2.44,5.36,1.89,6.96c1.99,0.74,3.48,2.84,5.2,4.32c-11.48-5.24-20.85-1.9-22.38,7.82
		c4.81,0.96,9.17,1.82,13.53,2.69c-0.07,0.48-0.15,0.97-0.22,1.45c-7.85-2.23-14.94-1.18-20.02,5.59c-1.51,2.02-1.59,5.11-2.3,7.6
		c-7.75-3.91-11.98-2.57-16.67,4.87c-4.06,0.7-7.3,0.45-9.46,1.86c-2.29,1.49-4,2.44-6.65,1.47c-0.85-0.31-2.39-0.27-2.92,0.28
		c-3.41,3.5-7.77,2.17-11.78,2.66c-1.99,0.24-4.29,0.33-5.85,1.38c-7.42,4.97-16.07,4.44-24.27,5.82c-3.63,0.61-7.57,2.3-10.73-1.68
		c-0.57-0.72-2.64-0.68-3.85-0.36c-4.73,1.23-9.36,2.82-14.09,4.06c-4.67,1.22-9.38,2.26-14.11,3.21
		c-4.08,0.82-8.21,1.42-12.32,2.11c0.03,0.52,0.06,1.05,0.09,1.57c2.25,0.42,4.48,1.08,6.75,1.23c11.11,0.74,22.23,1.7,33.35,1.94
		c23.29,0.49,46.59,0.7,69.89,0.78c13.33,0.05,26.65-0.37,39.98-0.59c5.25-0.09,10.73-3.13,15.58,2.1c0-25.44,0-50.02,0-74.6
		c-0.37-0.35-0.73-0.71-1.1-1.06C234.35,423.25,231.42,425.09,229.36,427.63z"/>
	<path class="st0" d="M183.72,262.38c22.12,0,40.33-18.12,40.43-40.23c0.1-22.24-17.78-40.48-39.9-40.7
		c-22.4-0.23-40.83,17.82-41.01,40.16C143.06,243.81,161.49,262.38,183.72,262.38z M183.53,189.26
		c18.29-0.09,32.85,14.4,32.83,32.68c-0.02,18.04-14.41,32.49-32.43,32.58c-18.06,0.09-32.68-14.25-32.83-32.18
		C150.94,203.98,165.28,189.36,183.53,189.26z"/>
	<path class="st0" d="M215.6,564.27c-7.8,1.35-15.69,2.08-23.53,3.22c-1.6,0.23-3.1,1.13-4.65,1.73c0.1,0.46,0.19,0.93,0.29,1.39
		c16.38,4.02,33.2,3.81,50.22,5c0-5.98,0-11.45,0-17.75c-3.44,1-6.46,1.87-9.47,2.74C224.18,561.85,219.97,563.51,215.6,564.27z"/>
	<path class="st0" d="M469.55,203.77c3.65-3.86,6.66-8.12,10.67-11.01c4-2.88,9-4.38,14.36-6.86c-3.03-0.96-5.92-2.64-8.81-2.63
		c-8.53,0.03-13,6.79-18.03,12.18c-16.9-6.14-24.38-4.55-27.3,6.04C450.89,195.66,460.39,199.57,469.55,203.77z"/>
	<path class="st0" d="M404.27,244.76c6.11-8.51,12.69-16.32,24.48-17.33c-2.89-1.68-5.78-3.36-8.68-3.37
		c-8.58-0.03-12.94,6.94-18.11,12.15c-16.79-5.93-23.85-4.5-27.54,6.34C385.38,236.29,394.73,240.53,404.27,244.76z"/>
	<path class="st0" d="M460.92,269.13c6.14-8.36,12.57-16.42,24.55-16.5c-7.43-7.65-13.18-5.89-26.78,7.75
		c-18.73-5.22-25.61-3.7-26.88,6.14C442.04,260.66,451.36,264.89,460.92,269.13z"/>
</g>
<g>
</g>
<g>
</g>
<g>
</g>
<g>
</g>
<g>
</g>
<g>
</g>
</svg>
