<?xml version="1.0" encoding="utf-8"?>
<!-- Generator: Adobe Illustrator 24.3.0, SVG Export Plug-In . SVG Version: 6.00 Build 0)  -->
<svg version="1.1" id="Layer_1" xmlns="http://www.w3.org/2000/svg" xmlns:xlink="http://www.w3.org/1999/xlink" x="0px" y="0px"
	 viewBox="0 0 595.28 841.89" style="enable-background:new 0 0 595.28 841.89;" xml:space="preserve">
<style type="text/css">
	.st0{fill:#535453;}
</style>
<g>
	<path class="st0" d="M267.2,557.72c0-18.09-0.06-35.93,0.06-53.77c0.02-3.37-0.99-5.98-3.12-8.56
		c-13.63-16.47-27.14-33.05-40.69-49.58c-10.89-13.28-26.43-16.31-41.59-8.12c-4.23,2.28-8.43,4.6-13.48,7.36
		c-0.18-2.21-0.84-3.93-0.34-5.2c4.8-12.3,5.72-24.97,3.89-37.91c-1.4-9.88-4.2-19.25-11.31-26.69c-6.96-7.29-15.47-7.99-23.72-2.21
		c-0.41,0.29-0.87,0.49-1.28,0.72c-8.95-10.38-19.24-13.45-29.67-8.94c-10.07,4.35-15.58,14.15-14.11,25.99
		c1.1,8.83,2.34,17.69,4.22,26.38c9.68,44.75,28.73,85.54,53.48,123.77c3.54,5.47,4.95,10.7,4.05,16.87
		c-5.16,1.98-6.03,3.22-6.04,8.73c-0.01,11.28-0.02,22.56,0,33.85c0.01,5.9,2.17,8.06,8.08,8.06c36.61,0.01,73.22,0.01,109.83,0
		c5.9,0,8.03-2.16,8.04-8.08c0.02-11.28,0.01-22.56,0-33.85C273.49,560.96,272.68,559.81,267.2,557.72z M254.53,557.75
		c-29.29,0-58.44,0-88.18,0c0-3.08,0.33-6.34-0.1-9.5c-0.39-2.86-1.04-5.99-2.58-8.35c-22.04-33.76-40.13-69.41-50.89-108.39
		c-3.78-13.7-6.05-27.87-8.34-41.93c-1.62-9.97,6.98-16.9,15.45-13.13c3.77,1.68,5.58,4.89,6.83,8.65
		c8.1,24.5,19.14,47.6,33.31,69.18c12.82,19.52,27.89,37.04,46.53,51.99c2.7-3.36,5.14-6.4,7.83-9.74
		c-14.49-12.08-27.3-25.41-38.31-41.21c5.42-2.94,10.38-6.14,15.74-8.4c7.15-3.02,15.18-0.94,20.33,5.22
		c13.87,16.61,27.51,33.4,41.18,50.16c0.68,0.83,1.15,2.11,1.15,3.18C254.55,522.79,254.53,540.1,254.53,557.75z"/>
	<path class="st0" d="M456.41,362.94c-8.13,0.37-14.33,4.39-18.98,10.84c-11.9-7.5-21.71-5.26-29.08,6.65
		c-1.71,2.76-3.18,5.77-4.19,8.84c-5.44,16.48-5.55,32.96,0.73,49.28c0.95,2.47,1.31,4.47-1.31,6.19c-3.94-2.25-7.91-4.54-11.9-6.79
		c-15.33-8.62-31.08-5.64-42.22,7.97c-13.54,16.54-27.04,33.12-40.67,49.6c-2.14,2.58-3.1,5.22-3.07,8.58
		c0.12,17.83,0.05,35.67,0.05,53.43c-5.69,2.54-6.29,3.47-6.3,9.54c0,11.15-0.02,22.3,0.01,33.45c0.01,5.69,2.19,7.93,7.8,7.93
		c36.74,0.02,73.48,0.02,110.22,0c5.68,0,7.91-2.2,7.93-7.81c0.03-11.28,0.02-22.56,0.01-33.85c0-5.78-0.76-6.89-6.94-9.44
		c0.72-3.94,0.48-8.6,2.38-12.1c9.26-17.02,19.87-33.34,28.54-50.63c16.37-32.65,27.61-67.03,31.69-103.55
		C482.87,375.29,471.73,362.24,456.41,362.94z M468.52,389.29c-1.6,10.87-3.16,21.81-5.78,32.47
		c-10.17,41.41-28.46,79.26-51.63,114.84c-3.24,4.97-5.32,9.76-4.61,15.68c0.21,1.78,0.03,3.61,0.03,5.72c-29.62,0-58.6,0-88.18,0
		c0-1.32,0-2.57,0-3.82c0-15.74-0.07-31.48,0.09-47.22c0.02-1.89,0.76-4.14,1.94-5.6c12.51-15.52,25.17-30.92,37.81-46.33
		c8.75-10.66,16.86-12.09,28.92-5.15c3.06,1.76,6.12,3.52,9.58,5.52c-10.82,15.55-23.58,28.93-38.26,41.1
		c2.58,3.24,5.07,6.38,7.76,9.76c10.42-8.18,19.64-17.25,28.05-27.15c23.47-27.63,40.19-59.03,51.69-93.29
		c1.68-5,3.9-9.27,9.59-10.3C463.54,374.08,469.82,380.48,468.52,389.29z"/>
	<path class="st0" d="M163.97,362.88c21.65,0,43.29,0,64.94,0c1.39,0,2.78,0,3.84,0c-0.88,6.03-1.98,11.67-2.46,17.37
		c-0.44,5.34,2.1,7.8,7.41,7.8c32.8,0.03,65.59,0.03,98.39,0c5.11,0,7.75-2.48,7.34-7.49c-0.48-5.83-1.59-11.6-2.47-17.68
		c1.11,0,2.52,0,3.94,0c20.6,0,41.2-0.34,61.79,0.12c13.21,0.3,13.23-3.99,11.85-13.63c-3.42-23.8-21.06-43.02-44-47.77
		c-24.38-5.05-48.21,5.43-60.98,26.78c-0.51,0.85-1.16,1.62-1.75,2.42c-16.75-7.68-33.23-7.68-50.06,0.09
		c-0.87-1.41-1.55-2.51-2.22-3.61c-12.74-20.83-38.06-31.26-61.57-25.36c-24.16,6.06-41.66,26.71-43.25,51.04
		C154.21,360.78,156.16,362.88,163.97,362.88z M323.79,335.75c6.89-12.64,17.58-20.02,32.29-22.76c0,6.28,0,12.03,0,18.09
		c4.17,0,8.15,0,12.52,0c0-5.73,0-11.56,0-17.38c16.47,0.03,35.86,17.56,37.05,36.59c-1.7,0-3.39,0-5.07,0
		c-20.97,0-41.94-0.04-62.91,0.06c-2.62,0.01-4.26-0.74-5.84-2.88c-2.16-2.93-4.99-5.36-7.29-8.2
		C323.84,338.41,323.34,336.57,323.79,335.75z M280.6,338.67c0,5.84,0,11.69,0,17.72c4.23,0,8.12,0,12.39,0c0-5.82,0-11.66,0-17.49
		c16.67-0.03,36,17.84,37.04,36.41c-28.7,0-57.39,0-86.4,0C244.32,358.04,263.73,338.76,280.6,338.67z M205.02,313.37
		c0,6.07,0,11.8,0,17.77c4.22,0,8.19,0,12.51,0c0-5.95,0-11.8,0-18.37c3.71,1.1,7.02,1.79,10.09,3.04
		c9.42,3.82,16.6,10.26,21.77,19.04c1.32,2.25,1.67,3.78-0.72,5.58c-1.96,1.47-3.89,3.31-5.07,5.41c-2.56,4.56-6.32,5.18-11.1,5.13
		c-19.91-0.23-39.83-0.1-59.75-0.1c-1.43,0-2.85,0-4.23,0C165.91,336.02,187.02,314.27,205.02,313.37z"/>
	<path class="st0" d="M211.17,293.6c17.4,0.05,31.59-14.08,31.6-31.46c0.01-17.24-13.97-31.36-31.16-31.49
		c-17.42-0.13-31.7,13.91-31.79,31.25C179.72,279.31,193.81,293.55,211.17,293.6z"/>
	<path class="st0" d="M362.04,293.6c17.42,0.18,31.76-13.84,31.89-31.17c0.13-17.43-13.9-31.69-31.27-31.78
		c-17.25-0.09-31.48,13.82-31.69,30.96C330.76,279.06,344.72,293.42,362.04,293.6z"/>
	<path class="st0" d="M286.71,318.79c17.4,0.07,31.61-14.05,31.64-31.42c0.02-17.4-14.12-31.54-31.52-31.53
		c-17.38,0.02-31.49,14.21-31.44,31.61C255.44,304.64,269.52,318.72,286.71,318.79z"/>
</g>
</svg>
