<?xml version="1.0" encoding="utf-8"?>
<!-- Generator: Adobe Illustrator 24.3.0, SVG Export Plug-In . SVG Version: 6.00 Build 0)  -->
<svg version="1.1" id="Ebene_1" xmlns="http://www.w3.org/2000/svg" xmlns:xlink="http://www.w3.org/1999/xlink" x="0px" y="0px"
	 viewBox="0 0 1500 1500" style="enable-background:new 0 0 1500 1500;" xml:space="preserve">
<style type="text/css">
	.st0{fill:#535353;}
</style>
<g>
	<g>
		<path class="st0" d="M1043.81,796.01c-0.31,0.31-0.62,0.62-0.94,0.92l-34.91,33.54c-2.18,2.09-3.41,4.97-3.44,7.99
			c-0.25,33.04-12.9,66-37.96,91.21l-188.38,180.99c-0.16,0.15-0.31,0.3-0.47,0.46c-17.13,16.94-44.81,17.15-61.85,0.13l-0.12-0.12
			L533.67,930.75c-24.96-24.99-37.69-57.65-38.18-90.46c-0.04-2.93-1.23-5.71-3.31-7.77l-35.99-35.65
			c-7.19-7.19-13.82-14.72-19.9-22.55c-5.6-7.21-17.08-4.94-19.59,3.84c-21.03,73.71-2.58,156.4,55.35,214.33
			c0.05,0.05,0.1,0.1,0.14,0.14l182.09,180.39c50.9,50.82,133.59,50.91,184.6,0.27l188.43-181.04c0.21-0.2,0.42-0.4,0.62-0.61
			c57.93-57.93,76.38-140.62,55.35-214.33c-2.5-8.78-13.99-11.05-19.59-3.84C1057.63,781.28,1051,788.82,1043.81,796.01z"/>
		<path class="st0" d="M749.36,658.33c-65.93-45.14-151.34-50.01-221.48-14.63c-4.82,2.43-7.25,7.93-5.77,13.12
			c4.88,17.05,14,33.13,27.39,46.55l12.6,12.48c3.24,3.21,8.1,4.15,12.29,2.35c47.86-20.59,105.59-11.32,144.56,27.81
			c16.92,16.99,44.54,16.72,61.49-0.23l0.82-0.82c38.88-38.88,96.34-48.12,144.05-27.74c4.14,1.77,8.94,0.9,12.18-2.22l13.33-12.8
			c13.24-13.38,22.26-29.4,27.09-46.37c1.46-5.14-1.04-10.57-5.81-12.98c-70.58-35.6-156.6-30.44-222.69,15.49
			C749.39,658.33,749.38,658.33,749.36,658.33z"/>
	</g>
	<path class="st0" d="M1027.94,471.79c85.01,85.01,85.01,223.34,0,308.35c-0.21,0.21-0.41,0.41-0.62,0.61L838.89,961.79
		c-51.01,50.65-133.7,50.55-184.6-0.27L472.2,781.13c-0.05-0.05-0.1-0.1-0.14-0.14c-85.01-85.01-85.01-223.34,0-308.35
		c75.31-75.31,192.47-83.9,277.33-25.78C834.34,387.79,952.26,396.11,1027.94,471.79z M966.56,718.18
		c50.72-51.03,50.62-133.81-0.29-184.73c-51.01-51.01-134-51.01-185.01,0l-0.85,0.85c-17.03,17.03-44.64,17.03-61.67,0
		c-51.01-51.01-134-51.01-185.01,0c-50.99,50.99-51.01,133.94-0.06,184.95l182.08,180.38c0.05,0.05,0.1,0.1,0.14,0.14
		c17,17,44.67,17,61.67,0c0.21-0.21,0.41-0.41,0.62-0.61L966.56,718.18z"/>
</g>
</svg>
