<?xml version="1.0" encoding="utf-8"?>
<!-- Generator: Adobe Illustrator 24.3.0, SVG Export Plug-In . SVG Version: 6.00 Build 0)  -->
<svg version="1.1" id="Layer_1" xmlns="http://www.w3.org/2000/svg" xmlns:xlink="http://www.w3.org/1999/xlink" x="0px" y="0px"
	 viewBox="0 0 4000 4000" style="enable-background:new 0 0 4000 4000;" xml:space="preserve">
<style type="text/css">
	.st0{fill-rule:evenodd;clip-rule:evenodd;fill:#525254;}
</style>
<g>
	<path class="st0" d="M930.67,564.89c51.86,685.19,1064.64,1314.61,192.24,2535.15c556.48-396.31,848.83-970.36,877.09-1722.14
		C1684.44,1596.21,1328,1325.21,930.67,564.89z"/>
	
		<ellipse transform="matrix(0.7071 -0.7071 0.7071 0.7071 -243.038 1472.1917)" class="st0" cx="1655.57" cy="1029.47" rx="236.29" ry="236.29"/>
	<path class="st0" d="M433.83,1218.12c39.66,523.98,814.16,1005.31,147.01,1938.69c425.55-303.07,649.12-742.06,670.73-1316.96
		C1010.27,2006.79,737.68,1799.55,433.83,1218.12z"/>
	<circle class="st0" cx="988.19" cy="1573.39" r="180.7"/>
	<path class="st0" d="M3189.43,564.89c-397.33,760.32-753.77,1031.32-1069.33,813.01c28.26,751.78,320.62,1325.83,877.09,1722.14
		C2124.78,1879.5,3137.57,1250.08,3189.43,564.89z"/>
	<circle class="st0" cx="2464.52" cy="1029.47" r="236.29"/>
	<path class="st0" d="M3686.26,1218.12c-303.84,581.43-576.43,788.67-817.74,621.73c21.61,574.9,245.18,1013.89,670.73,1316.96
		C2872.11,2223.43,3646.61,1742.1,3686.26,1218.12z"/>
	<circle class="st0" cx="3131.91" cy="1573.39" r="180.7"/>
</g>
</svg>
