<?xml version="1.0" encoding="utf-8"?>
<!-- Generator: Adobe Illustrator 24.3.0, SVG Export Plug-In . SVG Version: 6.00 Build 0)  -->
<svg version="1.1" xmlns="http://www.w3.org/2000/svg" xmlns:xlink="http://www.w3.org/1999/xlink" x="0px" y="0px"
	 viewBox="0 0 500 500" style="enable-background:new 0 0 500 500;" xml:space="preserve">
<style type="text/css">
	.st0{fill:#535453;}
</style>
<g id="BACKGROUND">
</g>
<g id="OBJECTS">
	<g>
		<g>
			
				<ellipse transform="matrix(0.7071 -0.7071 0.7071 0.7071 13.9347 210.2064)" class="st0" cx="260.71" cy="88.28" rx="22.76" ry="22.76"/>
			<path class="st0" d="M287.02,103.94L287.02,103.94c-4.31,10.29-14.47,17.52-26.32,17.52c-4.04,0-7.89-0.85-11.38-2.37
				c-17.37-6.97-26.89-27.88-28.01-44.77c-0.24-3.59-3.15-6.4-6.75-6.4l0,0c-3.75,0-6.74,3.04-6.78,6.79
				c-0.27,31.48,13.52,56.82,13.52,56.82c-43.91,42.3-4.2,92.02-4.2,92.02c21.71-90.55,84.38-90.77,103.92-88.51l13.5-15.98
				C312.62,103.49,287.02,103.94,287.02,103.94z"/>
		</g>
		<g>
			
				<ellipse transform="matrix(0.2354 -0.9719 0.9719 0.2354 -49.8521 252.0629)" class="st0" cx="135.28" cy="157.72" rx="22.76" ry="22.76"/>
			<path class="st0" d="M162,142.76L162,142.76c6.76,8.88,7.94,21.29,2.01,31.55c-2.02,3.5-4.68,6.41-7.74,8.67
				c-14.72,11.56-37.59,9.34-52.77,1.87c-3.23-1.59-7.12-0.47-8.92,2.64l0,0c-1.87,3.24-0.74,7.36,2.49,9.26
				c27.13,15.98,55.97,16.7,55.97,16.7c14.67,59.18,77.59,49.65,77.59,49.65c-67.56-64.08-36.42-118.46-24.7-134.25l-7.09-19.68
				C174.4,120.36,162,142.76,162,142.76z"/>
		</g>
		<g>
			
				<ellipse transform="matrix(0.2203 -0.9754 0.9754 0.2203 -190.1975 364.1753)" class="st0" cx="132.7" cy="301.06" rx="22.76" ry="22.76"/>
			<path class="st0" d="M133.1,270.44L133.1,270.44c11.06-1.41,22.4,3.77,28.33,14.03c2.02,3.5,3.21,7.26,3.64,11.03
				c2.65,18.52-10.7,37.22-24.76,46.64c-2.99,2-3.97,5.93-2.17,9.05l0,0c1.87,3.24,6.01,4.32,9.27,2.47
				c27.4-15.5,42.45-40.12,42.45-40.12c58.59,16.88,81.79-42.38,81.79-42.38c-89.28,26.47-120.8-27.69-128.61-45.74l-20.59-3.7
				C119.91,248.5,133.1,270.44,133.1,270.44z"/>
		</g>
		<g>
			
				<ellipse transform="matrix(0.8682 -0.4962 0.4962 0.8682 -152.3766 176.2114)" class="st0" cx="255.54" cy="374.97" rx="22.76" ry="22.76"/>
			<path class="st0" d="M229.23,359.3L229.23,359.3c4.31-10.29,14.47-17.52,26.32-17.52c4.04,0,7.89,0.85,11.38,2.37
				c17.37,6.97,26.89,27.88,28.01,44.77c0.24,3.59,3.15,6.4,6.75,6.4l0,0c3.75,0,6.74-3.04,6.78-6.79
				c0.27-31.48-13.52-56.82-13.52-56.82c43.91-42.3,4.2-92.02,4.2-92.02c-21.71,90.55-84.38,90.77-103.92,88.51l-13.5,15.98
				C203.63,359.76,229.23,359.3,229.23,359.3z"/>
		</g>
		<g>
			
				<ellipse transform="matrix(0.9649 -0.2626 0.2626 0.9649 -66.8554 110.7497)" class="st0" cx="380.97" cy="305.53" rx="22.76" ry="22.76"/>
			<path class="st0" d="M354.25,320.49L354.25,320.49c-6.76-8.88-7.94-21.29-2.01-31.55c2.02-3.5,4.68-6.41,7.74-8.67
				c14.72-11.56,37.59-9.34,52.77-1.87c3.23,1.59,7.12,0.47,8.92-2.64l0,0c1.87-3.24,0.74-7.36-2.49-9.26
				c-27.13-15.98-55.97-16.7-55.97-16.7c-14.67-59.18-77.59-49.65-77.59-49.65c67.56,64.08,36.42,118.46,24.7,134.25l7.09,19.68
				C341.85,342.88,354.25,320.49,354.25,320.49z"/>
		</g>
		<g>
			
				<ellipse transform="matrix(9.874478e-03 -1 1 9.874478e-03 217.5851 544.1251)" class="st0" cx="383.55" cy="162.19" rx="22.76" ry="22.76"/>
			<path class="st0" d="M383.15,192.81L383.15,192.81c-11.06,1.41-22.4-3.77-28.33-14.03c-2.02-3.5-3.21-7.26-3.64-11.03
				c-2.65-18.52,10.7-37.22,24.76-46.64c2.99-2,3.97-5.93,2.17-9.05l0,0c-1.87-3.24-6.01-4.32-9.27-2.47
				c-27.4,15.5-42.45,40.12-42.45,40.12c-58.59-16.88-81.79,42.38-81.79,42.38c89.28-26.47,120.8,27.69,128.61,45.74l20.59,3.7
				C396.34,214.75,383.15,192.81,383.15,192.81z"/>
		</g>
	</g>
</g>
</svg>
