<?xml version="1.0" encoding="utf-8"?>
<!-- Generator: Adobe Illustrator 24.3.0, SVG Export Plug-In . SVG Version: 6.00 Build 0)  -->
<svg version="1.1" id="Layer_1" xmlns="http://www.w3.org/2000/svg" xmlns:xlink="http://www.w3.org/1999/xlink" x="0px" y="0px"
	 viewBox="0 0 595.28 841.89" style="enable-background:new 0 0 595.28 841.89;" xml:space="preserve">
<style type="text/css">
	.st0{fill:#535353;}
</style>
<g>
	<path class="st0" d="M108.6,395.86c-0.88-4.67-5.16-7.22-10.48-5.82c-12.36,3.26-24.78,6.36-36.95,10.22
		c-12.5,3.97-20.76,12.74-25.21,25.08c-0.74,2.04-1.38,4.12-2.06,6.18c0,14.85,0,29.7,0,44.55c1.63,2.86,2.81,6.13,4.99,8.48
		c2.69,2.9,3.2,5.93,3.18,9.61c-0.12,21.09-0.17,42.18,0.08,63.27c0.03,2.72,1.23,6.12,3.12,7.9c1.48,1.39,5.63,1.87,7.23,0.77
		c2.22-1.53,4.43-4.88,4.48-7.5c0.37-19.56,0.2-39.14,0.21-58.71c0-1.79,0-3.58,0-5.3c8.83,0,16.98,0,25.36,0c0,2.25,0,4.09,0,5.93
		c0,24.46-0.01,48.93,0.01,73.39c0.01,5.87,2.85,9.34,7.54,9.4c4.68,0.06,7.65-3.4,7.65-9.24c0.03-39.48,0.03-78.96,0-118.44
		c0-5.98-2.79-9.27-7.58-9.26c-4.72,0.01-7.58,3.45-7.61,9.3c-0.04,7.54-0.01,15.08-0.01,22.97c-8.81,0-17.05,0.29-25.25-0.1
		c-5.44-0.26-8.12-3.76-8.19-9.63c-0.11-9.95-0.11-19.91-0.01-29.86c0.12-12.45,7.01-21.5,19.01-24.89
		c11.16-3.16,22.4-6.07,33.57-9.2C106.65,403.56,109.35,399.84,108.6,395.86z"/>
	<path class="st0" d="M455.52,570.95c-8.72-2.51-17.39-5.2-26.08-7.83c-4.59-1.39-6.56-4.42-6.99-9.3
		c-0.67-7.73,0.31-14.29,8.29-17.82c0.15-0.07,0.3-0.18,0.39-0.31c5.9-8.77,14.43-9.61,24.17-9.29
		c13.59,0.44,23.84-10.45,23.97-24.07c0.1-9.45,0.17-18.9-0.02-28.34c-0.23-11.62,0.37-23.4-1.35-34.81
		c-5.66-37.72-37.41-68.26-74.99-73.27c-39.53-5.27-77.35,15.76-93.61,51.83c-6.98,15.5-8.08,31.8-7.86,48.44
		c0.23,17.17,7.52,25.8,24.9,28.34c3.04,19.37,12.31,34.66,28.43,45.48c2.76,1.85,4.01,3.73,3.65,6.95
		c-0.21,1.83-0.01,3.71-0.05,5.56c-0.14,6.93-1.55,8.9-8.14,10.93c-8.68,2.67-17.44,5.1-26.07,7.91
		c-16.32,5.32-24.27,19.49-22.49,37.35c0.41,4.13,2.94,6.85,7.32,6.99c4.65,0.15,7.08-2.62,7.92-6.93c0.26-1.31,0.16-2.69,0.17-4.03
		c0.11-11.71,3.49-16.19,14.84-19.65c2.09-0.64,4.28-1.04,6.26-1.94c3.18-1.44,5.55-0.7,8.26,1.42
		c23.79,18.56,57.89,20.42,82.67,3.41c7.33-5.03,13.28-5.63,21.09-2.73c9.41,3.5,13.64,8.54,13.81,18.69
		c0.03,1.52-0.03,3.04,0.08,4.55c0.31,4.35,2.78,6.78,7.03,7.2c4.05,0.4,7.61-2.52,8.05-6.73
		C481.29,588.81,471.01,575.4,455.52,570.95z M320.77,430.85c10.77-32.88,42.13-52.92,77.85-49.97
		c31.48,2.6,59.74,28.94,64.19,61.35c1.82,13.27,0.95,26.91,1.22,40.38c0.11,5.56,0.04,11.13,0.01,16.69
		c-0.04,9.61-3.79,12.78-13.87,11.58c1.44-6.39,3.12-12.36,4.12-18.45c3.95-24.02-9.25-46.71-32.26-54.85
		c-19.33-6.84-38.83-13.18-58.32-19.53c-11.09-3.61-20.53,2.87-21.48,14.43c-0.13,1.51-0.03,3.04-0.12,4.55
		c-0.35,5.98-3.1,8.78-9.16,9.19c-5,0.33-10.02,0.53-15.95,0.84C318.21,441.76,319.03,436.16,320.77,430.85z M341.52,488.1
		c-0.39-6.76-2.94-9.15-9.88-9.29c-2.35-0.05-4.74,0.04-7.05-0.31c-4.86-0.74-7.55-4.01-7.4-8.63c0.13-4.37,3.35-7.65,8.13-8.03
		c2.68-0.21,5.39-0.02,8.09-0.11c13.76-0.47,23.68-10.33,24.26-24.11c0.06-1.5,0.01-3,0.01-5.56c21.31,7.24,41.95,13.8,62.24,21.32
		c10.04,3.72,16.05,12.11,18.67,22.48c6.39,25.36-14.68,55.72-40.78,59.02C367.75,538.66,343.27,518.32,341.52,488.1z
		 M361.39,575.73c9.99-5.95,13.13-15.26,12.54-26.35c5.94,0.54,11.28,1.43,16.62,1.41c5.32-0.02,10.63-0.95,16.52-1.53
		c-0.64,10.97,2.21,20.55,12.59,26.44C404.03,586.88,376.32,586.83,361.39,575.73z"/>
	<path class="st0" d="M260.81,571.01c-8.66-2.75-17.38-5.27-26.08-7.86c-4.41-1.31-6.82-4.14-6.93-8.8
		c-0.05-2.19,0.16-4.41-0.09-6.57c-0.44-3.76,0.93-6.03,4.19-8.22c13.4-8.99,22.07-21.53,26.25-37.13c0.73-2.71,1.24-5.47,1.79-7.91
		c2.66-0.5,4.85-0.77,6.96-1.32c14.97-3.93,22.83-21.92,14.18-34.58c-3.99-5.85-4.84-11.41-4.56-17.83c0.14-3.2,0.07-6.41,0.01-9.62
		c-0.62-32.05-21.72-55.56-53.39-57.57c-18.98-1.2-38.16-1.02-57.14,0.23c-24.63,1.62-44.63,19.47-49.46,43.58
		c-1.93,9.62-1.28,19.78-1.5,29.7c-0.07,3.34-0.8,5.89-2.99,8.62c-10.86,13.5-3.78,33.53,13.09,37.59c2.1,0.51,4.24,0.86,6.27,1.27
		c5.15,21.19,11.33,32.99,24.65,42.24c6.27,4.35,8.3,8.99,7.65,16.11c-0.58,6.4-1.69,8.48-8.09,10.47
		c-7.55,2.34-15.14,4.56-22.7,6.89c-18.51,5.69-26.26,16.34-26.07,35.79c0.06,6.27,2.85,9.72,7.79,9.66
		c4.73-0.06,7.36-3.37,7.46-9.41c0.24-13.64,3.4-17.83,16.4-21.75c1.29-0.39,2.64-0.63,3.86-1.17c3.76-1.65,6.68-0.89,10.07,1.68
		c25.49,19.34,61.54,19.32,86.57,0c3.16-2.44,5.77-3.02,9.59-1.84c18.1,5.56,18.37,5.73,20.48,24.69c0.53,4.8,3.47,7.76,7.72,7.79
		c4.25,0.03,7.21-2.89,7.8-7.7C286.7,590.76,277.47,576.29,260.81,571.01z M154.41,392.5c5.14-2.42,11.33-3.41,17.08-3.58
		c16.01-0.47,32.05-0.26,48.08-0.14c23.78,0.18,40.94,17.34,41.33,41.21c0.09,5.21,0.01,10.42,0.01,16.2
		c-3.35,0-5.86,0.14-8.36-0.03c-4.82-0.32-7.91-2.77-8.4-7.75c-0.54-5.41-3.7-7.81-8.79-8.81c-25.1-4.93-50.16-10.01-75.24-15.02
		c-9.45-1.89-12.74,0.87-12.75,10.63c0,3.54,0.02,7.09-0.01,10.63c-0.06,7.23-2.83,10.14-9.99,10.43c-2.15,0.09-4.31,0.01-6.4,0.01
		C127.79,421.35,133.15,402.52,154.41,392.5z M147.03,492.02c-0.2-1.84-0.37-3.69-0.59-5.54c-0.61-5.21-2.92-7.39-8.2-7.64
		c-2.53-0.12-5.08,0.08-7.58-0.19c-5.31-0.57-8.72-4.29-8.44-8.92c0.26-4.31,3.99-7.68,8.96-7.94c2.52-0.13,5.06,0.02,7.59-0.08
		c13.66-0.52,23.38-10.19,23.91-23.79c0.08-2,0.01-4,0.01-6.97c10.46,2.01,20.02,3.79,29.55,5.69c11.22,2.23,22.45,4.45,33.61,6.97
		c1.75,0.39,3.79,2.02,4.61,3.63c4.83,9.53,12.53,14.22,23.07,14.5c2.53,0.07,5.08-0.12,7.59,0.12c4.52,0.43,7.63,3.64,7.85,7.79
		c0.24,4.64-2.42,8.02-7.2,8.81c-2.14,0.36-4.36,0.32-6.55,0.34c-7.88,0.1-10.28,2.37-10.61,10.12c-0.86,20.36-14.56,38.1-34.2,44.3
		C181.05,542.48,150.42,522.57,147.03,492.02z M166.54,575.72c10.08-5.92,13.3-15.15,12.39-25.73c11.4,0,22.05,0,33.16,0
		c-0.37,10.12,2.41,19.78,12.74,25.72C209.77,586.84,182.03,586.87,166.54,575.72z"/>
	<path class="st0" d="M341.53,322.06c2.82,1.01,5.86,1.38,8.66,2.02c1.52,5.58,2.82,11.15,4.57,16.56
		c2.01,6.18,5.62,8.38,10.35,6.86c4.64-1.49,5.99-5.6,4.13-11.71c-1.22-4.02-2.35-8.1-3.04-12.23
		c-2.39-14.35-2.31-14.36-16.43-15.41c-4.86-0.36-8.01-3.36-8.26-7.85c-0.25-4.54,2.46-7.97,7.33-8.71
		c2.98-0.45,6.05-0.27,9.08-0.44c13.63-0.77,22.51-9.17,24.04-22.69c0.69-6.1,2.99-7.91,9.06-6.9c23.58,3.94,47.15,7.9,70.7,12.01
		c1.47,0.26,3.32,1.56,3.96,2.88c4.79,9.78,12.52,14.65,23.36,14.77c2.86,0.03,5.77-0.02,8.56,0.49c4.39,0.81,7.28,4.71,6.91,8.66
		c-0.39,4.19-3.62,7.38-8.01,7.72c-2.35,0.18-4.72,0.04-7.08,0.1c-6.24,0.16-8.83,2.6-9.16,8.88c-0.91,17.19-7.5,31.59-20.7,42.86
		c-4.06,3.46-4.74,8.16-1.97,11.55c2.93,3.59,7.77,3.69,12.08,0c13.43-11.49,21.9-25.91,24.71-43.41c0.54-3.34,1.79-4.45,5-4.89
		c11.94-1.65,20.28-11.25,20.42-23.26c0.1-8.27,0.17-16.54-0.01-24.8c-0.73-34.33-15.43-61.22-43.68-80.55
		c-3.57-2.44-5.23-5-5.91-9.08c-3.86-23.17-24.37-39.72-48.58-39.44c-22.62,0.26-43.08,17.97-46.24,40.48
		c-0.51,3.62-1.9,5.47-4.8,7.41c-26.53,17.81-41.77,42.52-44.13,74.57c-0.78,10.57-0.55,21.23-0.39,31.85
		C326.21,310.32,332.4,318.8,341.53,322.06z M422.9,161.26c13.72-0.02,27.21,9.56,30.4,21.98c-20.29-6.38-40.45-6.39-60.73,0
		C395.69,170.88,409.2,161.27,422.9,161.26z M378.75,207.08c28.16-17.97,57.76-18.41,86.43-1.21
		c26.51,15.91,38.79,40.52,39.52,70.87c-5.59-0.35-10.75-0.74-15.91-0.97c-5.81-0.26-8.69-2.57-9.42-8.36
		c-0.59-4.75-3.15-7.16-7.72-7.93c-25.88-4.32-51.75-8.72-77.64-12.99c-15.35-2.53-25.19,4.75-27.38,20.03
		c-1.01,7.01-3.51,9.07-10.71,9.27c-4.66,0.13-9.31,0.58-14.53,0.92C341.63,246.96,353.66,223.09,378.75,207.08z"/>
	<path class="st0" d="M86.88,298.87c2.95,0.38,4.26,1.29,4.84,4.45c5.22,28.29,21.54,47.84,48.59,56.96
		c27.35,9.22,52.25,3.06,73.38-16.71c12.64-11.83,19.46-26.82,21.87-44.01c1.69-0.25,3.18-0.47,4.66-0.69
		c16-2.34,25.69-21.31,16.66-34.72c-4.31-6.41-4.78-12.48-4.73-19.32c0.04-5.4,0.08-10.8-0.01-16.19
		c-0.55-34.54-24.54-58.25-58.99-58.3c-17.88-0.03-35.76,0.03-53.64-0.02c-5.98-0.02-11.14,1.96-15.89,5.55
		c-1.75,1.32-4.02,2.37-6.17,2.68c-22.15,3.16-38.79,18.23-42.05,40.31c-1.69,11.4-0.62,23.2-1.05,34.82
		c-0.08,2.12-0.93,4.59-2.25,6.22c-5.95,7.35-7.5,15.39-4.08,24.12C71.35,292.56,77.74,297.68,86.88,298.87z M90.83,219.26
		c2.18-14.35,15.6-24.75,31.16-25.44c4.31-0.19,7.69-1.03,10.46-4.76c1.32-1.77,4.24-3.3,6.44-3.3c21.23,0.01,42.53-0.62,63.66,0.91
		c18.58,1.35,33.4,19.04,33.9,37.65c0.23,8.75,0.04,17.51,0.04,27.05c-3.19,0-5.85,0.11-8.5-0.03c-4.41-0.23-7.52-2.49-8.01-6.93
		c-0.69-6.32-4.13-8.76-10.17-9.72c-25.42-4.02-50.76-8.6-76.19-12.58c-15.61-2.44-24.9,5.21-26.81,21.2
		c-0.56,4.72-3.56,7.75-8.22,8.03c-2.81,0.17-5.63,0.03-9.41,0.03C89.68,240.32,89.25,229.64,90.83,219.26z M93.64,266.76
		c3.69-0.1,7.5-0.01,11.03-0.91c9.83-2.49,16.38-10.79,17.35-21.19c0.59-6.42,2.98-8.48,9.24-7.44
		c23.56,3.91,47.11,7.88,70.64,12.02c1.58,0.28,3.46,1.79,4.22,3.25c4.81,9.2,12.1,14.18,22.6,14.31c3.02,0.04,6.1-0.01,9.05,0.55
		c4.83,0.92,7.3,4.47,6.84,9.06c-0.42,4.24-3.53,7.06-8.16,7.4c-14.4,1.07-14.4,1.07-16.35,14.81
		c-4.13,29.16-27.87,50.08-56.83,50.09c-30.46,0.01-54.27-22.52-57.17-54.11c-0.85-9.3-2.47-10.74-12.01-10.76
		c-0.17,0-0.34,0-0.51,0c-7.83-0.02-11.94-2.92-11.96-8.43C81.58,270.06,85.99,266.97,93.64,266.76z"/>
	<path class="st0" d="M552.22,454.22c-0.08-17.38-10.95-32.54-27.48-37.84c-8.32-2.67-16.81-4.81-25.27-7.05
		c-5.62-1.49-9.84,0.58-10.89,5.06c-1.09,4.66,1.45,8.27,7.08,9.84c7.62,2.12,15.29,4.05,22.88,6.24
		c10.59,3.05,17.81,11.35,18.34,22.28c0.54,11.11,0.3,22.27,0.1,33.4c-0.08,4.74-2.72,8.31-7.65,8.53
		c-8.37,0.38-16.78,0.1-25.73,0.1c0-5.34,0.06-10.35-0.02-15.36c-0.08-5.48-3-8.72-7.69-8.68c-4.68,0.03-7.44,3.19-7.49,8.81
		c-0.07,7.93-0.02,15.86-0.02,23.79c0,23.45,0.04,46.91-0.04,70.36c-0.01,4.05,0.82,7.39,4.89,9.07c5.36,2.21,10.32-1.81,10.34-8.51
		c0.05-19.4,0.02-38.81,0.02-58.21c0-1.79,0-3.57,0-5.26c8.85,0,17,0,25.36,0c0,15.76-0.05,31.1,0.05,46.44
		c0.01,2.11,0.02,5.11,1.29,6.14c2.22,1.79,5.53,3.45,8.19,3.2c3.84-0.37,5.65-3.72,5.64-7.8c-0.05-16.7-0.11-33.41,0.09-50.11
		c0.03-2.27,1.04-4.86,2.4-6.7c3.53-4.78,5.67-9.84,5.62-15.86C552.17,475.48,552.27,464.85,552.22,454.22z"/>
	<path class="st0" d="M406.32,345.53c5.19,2.14,10.71,3.48,16.35,5.25c5.72-1.68,11.27-2.9,16.49-4.96
		c4.39-1.73,5.85-6.12,4.22-9.98c-1.63-3.86-5.9-5.87-10.08-3.96c-7.07,3.24-13.76,3.22-20.83-0.04c-4.21-1.94-8.38,0.12-10,4.07
		C400.91,339.72,402.15,343.81,406.32,345.53z"/>
	<path class="st0" d="M454.99,303.6c0-7.64-2.44-11.41-7.5-11.58c-5.2-0.18-7.79,3.71-7.8,11.68c0,8.29,2.25,11.75,7.64,11.72
		C452.6,315.38,454.99,311.69,454.99,303.6z"/>
	<path class="st0" d="M406.35,303.58c-0.01-7.55-2.53-11.41-7.57-11.57c-5.17-0.16-7.83,3.82-7.84,11.71
		c0,8.24,2.31,11.74,7.72,11.69C403.92,315.37,406.35,311.62,406.35,303.58z"/>
	<path class="st0" d="M411.04,510.74c3.95-3.42,4.44-7.53,1.52-11.09c-2.72-3.32-6.92-3.92-10.77-1.01
		c-7.63,5.75-14.98,5.73-22.63,0.02c-4.02-3-8.55-2.22-11.1,1.34c-2.39,3.34-1.72,7.67,1.84,10.76c5.82,5.04,12.69,7.39,20.33,7.78
		C398.04,518.27,405.08,515.89,411.04,510.74z"/>
	<path class="st0" d="M415.01,477.9c4.07-0.08,7.67-3.88,7.54-7.96c-0.13-4.19-3.75-7.48-8.05-7.29c-4.42,0.19-7.4,3.54-7.14,8.04
		C407.59,474.69,411.08,477.98,415.01,477.9z"/>
	<path class="st0" d="M373.9,469.97c-0.12-4.14-3.8-7.48-8.06-7.32c-4.41,0.17-7.47,3.56-7.21,8.01c0.23,3.98,3.75,7.31,7.65,7.25
		C370.34,477.84,374.02,474,373.9,469.97z"/>
	<path class="st0" d="M218.07,499.95c-2.57-3.55-7.11-4.29-11.12-1.28c-7.65,5.74-15,5.67-22.63-0.06
		c-3.87-2.91-8.05-2.27-10.76,1.06c-2.9,3.56-2.37,7.65,1.58,11.07c5.82,5.04,12.68,7.42,20.34,7.78c7.8-0.25,14.83-2.66,20.8-7.79
		C219.82,507.69,220.47,503.27,218.07,499.95z"/>
	<path class="st0" d="M178.8,469.96c-0.11-4.39-3.47-7.5-7.91-7.31c-4.05,0.17-7.31,3.55-7.3,7.54c0.02,4.12,3.7,7.76,7.78,7.71
		C175.55,477.84,178.9,474.26,178.8,469.96z"/>
	<path class="st0" d="M219.75,477.9c4.1,0.15,7.73-3.41,7.77-7.62c0.04-4.22-2.93-7.39-7.13-7.61c-4.26-0.23-7.97,3.05-8.15,7.21
		C212.07,473.9,215.67,477.75,219.75,477.9z"/>
	<path class="st0" d="M142.76,311.51c-1.57,3.74-0.29,7.99,3.83,9.67c5.34,2.18,11.02,3.54,16.74,5.3
		c5.82-1.81,11.35-3.1,16.52-5.26c4.05-1.69,5.42-5.36,3.79-9.66c-1.43-3.79-5.57-6-9.51-4.2c-7.4,3.38-14.37,3.47-21.78,0
		C148.55,305.57,144.29,307.86,142.76,311.51z"/>
	<path class="st0" d="M138.98,290.99c4.27-0.11,6.89-2.41,7.34-6.77c0.17-1.66,0.03-3.36,0.03-5.04c0.02,0,0.05,0,0.07,0
		c0-1.18,0.06-2.36-0.01-3.53c-0.29-4.67-3.32-7.89-7.43-7.96c-4.1-0.07-7.5,3.17-7.76,7.7c-0.18,3.02-0.36,6.11,0.11,9.07
		C131.98,288.56,134.62,291.11,138.98,290.99z"/>
	<path class="st0" d="M187.71,291c4.31-0.13,6.83-2.49,7.33-6.82c0.17-1.5,0.15-3.02,0.22-4.53c-0.05,0-0.1,0-0.15,0
		c0-1.51,0.12-3.04-0.02-4.54c-0.43-4.33-3.55-7.38-7.45-7.42c-3.85-0.04-7.36,3.05-7.72,7.25c-0.27,3.17-0.41,6.45,0.1,9.57
		C180.68,288.57,183.33,291.12,187.71,291z"/>
</g>
</svg>
