<?xml version="1.0" encoding="utf-8"?>
<!-- Generator: Adobe Illustrator 24.3.0, SVG Export Plug-In . SVG Version: 6.00 Build 0)  -->
<svg version="1.1" xmlns="http://www.w3.org/2000/svg" xmlns:xlink="http://www.w3.org/1999/xlink" x="0px" y="0px"
	 viewBox="0 0 500 500" style="enable-background:new 0 0 500 500;" xml:space="preserve">
<style type="text/css">
	.st0{fill:#535353;}
</style>
<g id="BACKGROUND">
</g>
<g id="OBJECTS">
	<g>
		<path class="st0" d="M491.67,364.04c-26.76-41.66-53.51-83.32-80.44-124.87c-0.7-1.08-3.56-1.68-4.99-1.21
			c-7.09,2.3-14.03,5.08-21.05,7.6c-5.86,2.1-8.01,1.39-11.21-3.99c-1.94-3.27-3.54-6.76-5.16-10.21
			c-9.73-20.74-19.42-41.51-29.15-62.25c-0.62-1.32-1.51-2.52-2.27-3.77c-2.05,14.02-2.94,27.85-3.99,41.67
			c-0.3,3.96-0.57,8.06-1.84,11.76c-0.69,2-3.4,4.52-5.29,4.6c-2.46,0.11-5.86-1.33-7.33-3.26c-2.12-2.78-3.02-6.56-4.2-10
			c-3.86-11.33-7.8-22.65-11.3-34.09c-1.29-4.23-3.42-7.23-7.55-8.42c-11.95-3.45-16.12-11.95-15.67-23.58
			c0.01-0.17-0.01-0.35-0.04-0.52c-1.49-11.29-2.98-22.59-4.68-35.48c-22.88,28.96-44.77,56.69-66.72,84.48
			c0.76,1.27,1.31,2.34,1.99,3.31c39.08,56.01,78.19,111.99,117.18,168.06c1.89,2.71,3.96,3.3,6.95,3.29
			c22.08-0.09,44.16-0.04,66.24-0.06c1.5,0,3-0.18,5.69-0.36c-3.63-2.96-6.23-5.47-9.2-7.41c-5.34-3.49-8.5-7.92-8.29-14.56
			c0.18-5.75-2.53-9.98-6.91-13.79c-15.67-13.61-29.92-28.44-38.32-47.91c-0.82-1.91-1.92-3.71-2.65-5.65
			c-1.56-4.09-1.67-7.92,2.85-10.33c4.32-2.3,7.91-0.93,10.35,2.89c2.61,4.08,4.63,8.53,7.03,12.74c2.82,4.95,5.04,10.51,8.82,14.6
			c8.12,8.8,16.85,17.07,25.79,25.05c4.45,3.97,7.33,8.06,7.2,14.18c-0.11,5.12,2.08,8.97,6.53,12.03
			c6.43,4.42,12.25,9.72,18.6,14.28c2.07,1.49,4.96,2.53,7.49,2.57c14.08,0.24,28.16,0.12,42.25,0.12c4.45,0,8.89,0,13.33,0
			C491.69,364.68,491.82,364.27,491.67,364.04z"/>
		<path class="st0" d="M121.88,235.21c-0.84,1.21-0.78,3.63-0.21,5.13c3.05,8.12,6.24,16.2,9.73,24.14
			c1.06,2.41,2.85,4.79,4.91,6.42c11.04,8.74,22.29,17.2,33.4,25.84c1.75,1.36,3.44,2.97,4.68,4.79
			c6.99,10.16,13.87,20.39,20.69,30.66c1.91,2.88,3.7,5.88,5.15,9.01c1.87,4.04,0.16,7.09-3.46,9.16
			c-3.98,2.28-7.58,1.23-11.32-4.27c-5.56-8.18-10.37-16.87-15.99-25.01c-3.61-5.22-7.53-10.5-12.32-14.57
			c-9.92-8.43-20.76-15.78-30.68-24.2c-3.8-3.23-6.68-7.9-8.99-12.42c-2.73-5.33-4.39-11.21-6.84-17.74
			c-26.53,38.44-52.61,76.21-79.37,114.97c13.13,0,25.07,0.19,37-0.15c2.58-0.07,5.81-1.38,7.55-3.24
			c12.23-13.07,24.13-26.45,36.18-39.69c2.69-2.95,5.32-6.04,8.44-8.47c4.68-3.65,10.88-1.3,12.09,4.52
			c0.63,3.02,0.51,6.22,0.52,9.33c0.05,12.32,0.02,24.64,0.02,37.33c59.88,0,119.05,0,179.07,0
			c-47.06-67.7-93.68-134.75-140.6-202.24C154.59,188.56,138.15,211.83,121.88,235.21z"/>
		<path class="st0" d="M56.89,160.83c17.98,3.03,24.88,10.17,27.14,28.08c0.65,5.15,4.69,8.02,9.6,6.82
			c4.53-1.11,5.73-4.44,6.03-8.6c1.04-14.42,10.44-23.98,24.83-25.41c1.21-0.12,2.43-0.23,3.61-0.5c4.23-0.99,6.14-3.97,5.84-8.03
			c-0.3-4.08-2.64-7.06-6.98-6.93c-4.29,0.12-8.67,0.61-12.8,1.73c-8.98,2.44-15.97,8.08-22.38,15.94
			c-0.66-1.09-1.03-1.87-1.55-2.53c-0.64-0.82-1.36-1.59-2.12-2.29c-8.71-7.99-18.49-13.55-30.77-12.99
			c-4.34,0.2-7.42,2.42-7.46,7.05C49.82,157.62,52.55,160.1,56.89,160.83z"/>
		<path class="st0" d="M301.42,153.77c9.52,2.87,15.11,9.2,16.48,19.18c0.18,1.29,0.92,2.49,1.4,3.74c0.27-0.03,0.54-0.05,0.81-0.08
			c0.91-11.33,1.82-22.65,2.74-34.18c-2.87-0.44-5.26-1.18-7.63-1.11c-6.29,0.2-10.4-2.77-13.6-7.92
			c-2.73-4.39-5.94-8.49-8.94-12.71c-0.44,0.12-0.89,0.23-1.33,0.35c0.81,7.18,2.05,14.34,2.31,21.54
			C293.87,148.33,295.75,152.06,301.42,153.77z"/>
		<path class="st0" d="M116.34,366.71c0-8.19,0-15.98,0-25.27c-7.82,8.84-14.81,16.73-22.37,25.27
			C102.17,366.71,109.17,366.71,116.34,366.71z"/>
	</g>
</g>
</svg>
