<?xml version="1.0" encoding="utf-8"?>
<!-- Generator: Adobe Illustrator 24.3.0, SVG Export Plug-In . SVG Version: 6.00 Build 0)  -->
<svg version="1.1" xmlns="http://www.w3.org/2000/svg" xmlns:xlink="http://www.w3.org/1999/xlink" x="0px" y="0px"
	 viewBox="0 0 500 500" style="enable-background:new 0 0 500 500;" xml:space="preserve">
<style type="text/css">
	.st0{fill:#525254;}
</style>
<g id="BACKGROUND">
</g>
<g id="OBJECTS">
	<g>
		<path class="st0" d="M301.26,121.74c34.06,0,61.78,27.72,61.78,61.78s-27.72,61.78-61.78,61.78c-6.4,0-11.58,5.18-11.58,11.58
			s5.18,11.58,11.58,11.58c46.84,0,84.94-38.11,84.94-84.94s-38.11-84.94-84.94-84.94c-6.4,0-11.58,5.18-11.58,11.58
			C289.68,116.56,294.87,121.74,301.26,121.74z"/>
		<path class="st0" d="M145.52,140.14c5.55,3.21,12.63,1.3,15.82-4.24c8.25-14.29,21.57-24.52,37.51-28.79
			c15.95-4.27,32.59-2.08,46.88,6.17c29.5,17.04,39.65,54.89,22.62,84.39c-3.2,5.54-1.3,12.62,4.24,15.82
			c1.82,1.06,3.82,1.56,5.78,1.56c4,0,7.89-2.08,10.04-5.79c11.35-19.65,14.36-42.54,8.49-64.46
			c-5.87-21.91-19.93-40.23-39.58-51.57c-19.65-11.35-42.54-14.36-64.45-8.49c-21.91,5.87-40.23,19.93-51.57,39.58
			C138.08,129.86,139.98,136.95,145.52,140.14z"/>
		<path class="st0" d="M103.65,264.17c-8.25-14.29-10.44-30.94-6.17-46.88s14.49-29.26,28.78-37.51
			c29.49-17.03,67.36-6.89,84.39,22.61c3.2,5.54,10.28,7.45,15.82,4.24c5.54-3.2,7.44-10.28,4.24-15.82
			c-23.42-40.56-75.46-54.52-116.03-31.09c-19.65,11.34-33.7,29.66-39.58,51.57c-5.87,21.91-2.86,44.8,8.49,64.45
			c2.14,3.72,6.04,5.79,10.04,5.79c1.96,0,3.95-0.5,5.78-1.56C104.95,276.79,106.85,269.7,103.65,264.17z"/>
		<path class="st0" d="M185.88,378.26c-34.06,0-61.78-27.72-61.78-61.78c0-34.06,27.72-61.78,61.78-61.78
			c6.4,0,11.58-5.18,11.58-11.58s-5.18-11.58-11.58-11.58c-46.84,0-84.94,38.11-84.94,84.94c0,46.84,38.11,84.94,84.94,84.94
			c6.4,0,11.58-5.18,11.58-11.58S192.27,378.26,185.88,378.26z"/>
		<path class="st0" d="M341.62,359.86c-5.54-3.2-12.63-1.3-15.82,4.24c-17.03,29.5-54.89,39.65-84.39,22.62
			c-29.5-17.04-39.65-54.89-22.62-84.39c3.2-5.54,1.3-12.62-4.24-15.82c-5.54-3.2-12.62-1.3-15.82,4.24
			c-11.35,19.65-14.36,42.54-8.49,64.46c5.87,21.91,19.93,40.23,39.58,51.57c13.09,7.56,27.61,11.42,42.33,11.42
			c7.38,0,14.81-0.97,22.13-2.93c21.92-5.87,40.24-19.93,51.57-39.58C349.06,370.14,347.16,363.06,341.62,359.86z"/>
		<path class="st0" d="M403.55,224.26c-3.2-5.54-10.27-7.45-15.82-4.24c-5.54,3.2-7.44,10.28-4.24,15.82
			c17.03,29.5,6.89,67.36-22.62,84.39c-29.51,17.03-67.36,6.88-84.39-22.62c-3.19-5.54-10.27-7.44-15.82-4.24
			c-5.54,3.2-7.44,10.28-4.24,15.82c11.34,19.65,29.66,33.71,51.57,39.58c7.32,1.96,14.74,2.93,22.12,2.93
			c14.72,0,29.25-3.86,42.33-11.42c19.65-11.34,33.7-29.66,39.58-51.57C417.91,266.79,414.9,243.9,403.55,224.26z"/>
	</g>
</g>
<g id="TEXTS">
</g>
</svg>
