<?xml version="1.0" encoding="utf-8"?>
<!-- Generator: Adobe Illustrator 24.3.0, SVG Export Plug-In . SVG Version: 6.00 Build 0)  -->
<svg version="1.1" id="Layer_1" xmlns="http://www.w3.org/2000/svg" xmlns:xlink="http://www.w3.org/1999/xlink" x="0px" y="0px"
	 viewBox="0 0 595.28 841.89" style="enable-background:new 0 0 595.28 841.89;" xml:space="preserve">
<style type="text/css">
	.st0{fill:#535453;}
</style>
<path class="st0" d="M477.58,371.91c-0.01,0.06-0.01,0.12-0.02,0.18c-0.01-0.93-0.1-1.87,0.04-2.78c0.01-0.03,0.01-0.06,0.01-0.09
	C477.67,370.08,477.66,370.98,477.58,371.91c1.05-9.43-0.03-18.74-1.96-28c-0.96-6.21-2.7-12.2-5.23-17.96
	c-5.86-16.38-15.64-30.15-28.36-41.85c-10.06-9.25-21.35-16.63-34.33-21.2c0,0,0,0,0,0c-6.22-2.86-12.77-4.58-19.5-5.67c0,0,0,0,0,0
	h0c-7.64-1.49-15.31-2.55-23.08-2.01c-1.12,0.01-2.23,0.08-3.34,0.33c-2.78-0.04-5.57-0.26-8.25,0.71c0,0,0,0,0,0
	c-3.08-0.01-6.08,0.43-8.98,1.52c0,0-0.01,0-0.01,0c-3.07,0.18-6.01,0.92-8.79,2.23c-3.68,0.7-7.2,1.88-10.49,3.71
	c-2.97,0.76-5.7,2.03-8.21,3.77h0c-3.05,0.95-5.63,2.74-8.16,4.59h0c-3.1,1.55-5.97,3.45-8.45,5.88c-2.03,1.93-3.73,1.28-5.69-0.35
	c-2.56-2.13-5.24-4.19-8.33-5.57c-7.57-5.17-15.8-8.94-24.61-11.45c0,0,0,0,0,0c-6.07-2.25-12.32-3.72-18.79-4.21
	c-5.95-0.97-11.9-1.69-17.91-1.16c-0.85,0.02-1.71,0.1-2.56,0.3c-1.41,0.06-2.81,0.12-4.22,0.18c-3.56,0-7.06,0.5-10.49,1.45
	c-3.15,0.24-6.21,0.9-9.13,2.12c-0.01,0-0.01,0-0.02,0.01c-3.34,0.54-6.53,1.54-9.55,3.06c-3.69,1-7.14,2.55-10.42,4.51h0
	c-3.28,1.33-6.4,2.95-9.18,5.16c-5.53,3.02-10.52,6.76-14.97,11.22c-2.79,2.12-5.37,4.45-7.44,7.29c-2.34,2.01-4.37,4.3-5.97,6.95
	c-2.96,3.15-5.37,6.69-7.36,10.52c-2.81,3.93-5.07,8.15-6.7,12.7l0,0c-1.57,2.52-2.46,5.31-3.35,8.11l0,0
	c-1.87,4.89-3.36,9.88-4.09,15.07c-2.2,10.2-3.11,20.48-1.69,30.88c0.03,0.44,0.06,0.87,0.09,1.31c-0.35,2.81,0.33,5.5,0.86,8.22
	c0.4,2.82,0.94,5.61,1.96,8.29c0.49,4.73,2.52,9,4.02,13.43c5.86,14.78,14.59,27.64,25.82,38.87c45.68,45.64,91.32,91.31,137,136.96
	c1.14,1.14,2.34,2.27,3.68,3.14c4.28,2.76,9.44,2.39,13-0.8c1.72-1.27,3.22-2.75,4.5-4.47c1.22-1.09,2.45-2.17,3.67-3.26
	c1.39-0.53,2.22-1.67,3.02-2.83c2.48-2.01,4.72-4.26,6.73-6.73c3.98-3.5,7.72-7.24,11.22-11.23c2.99-2.5,5.72-5.25,8.23-8.23
	c2.57-1.99,4.75-4.35,6.73-6.9c3.78-2.7,6.62-6.33,9.7-9.72c3.17-2.26,5.71-5.17,8.26-8.07c2.23-1.76,4.23-3.76,5.99-5.99
	c2.79-2.26,5.27-4.82,7.48-7.65c4.89-4.03,9.19-8.66,13.47-13.31c2.93-2.11,5.06-5.01,7.46-7.64c2.72-1.28,3.88-4.12,6.01-5.99
	c3.1-1.89,5.02-4.96,7.48-7.48c1.9-1.03,3.2-2.67,4.49-4.33c2.24-1.75,4.23-3.75,5.99-5.98c2.49-2,4.72-4.26,6.73-6.73
	c1.99-1.5,3.73-3.25,5.24-5.24c2.74-2.25,5.22-4.75,7.48-7.48c2.34-1.88,4.41-4.01,6.09-6.51c1.79-1.53,3.29-3.29,4.42-5.36
	c2.45-2.62,4.52-5.5,6.07-8.74c0,0,0,0,0,0c1.92-2.32,3.36-4.9,4.43-7.7l0,0c1.71-2.51,2.99-5.21,3.8-8.14h0
	c1.82-3.28,3.02-6.78,3.77-10.44c0,0,0,0,0,0c1.17-2.66,1.97-5.41,2.15-8.33c0.09-0.22,0.15-0.43,0.2-0.63
	c1.21-3.73,1.71-7.59,1.89-11.5l0,0c0.06-1.15,0.12-2.29,0.18-3.44c0.22-0.64,0.26-1.3,0.26-1.95
	C477.57,372.08,477.58,371.99,477.58,371.91z M414.13,392.47c-2.16,1.34-3.81,3.02-4.02,5.67c-0.06,0.01-0.12,0-0.19,0.02
	c-2.24,1.9-4.96,3.39-5.92,6.4c-0.18-0.01-0.36-0.03-0.55-0.01c-2.99,1.32-6.34,1.08-9.4,2.07c-0.09-0.1-0.19-0.2-0.28-0.3
	c-3.95-1.87-6.43-5.12-8.37-8.88c-0.02-0.01-0.04-0.02-0.06-0.04c1.5-2.42,0.72-5.45,1.94-7.94c0.09-0.4,0.12-0.78,0.12-1.13
	c3.36-1.73,5.43-4.44,5.87-8.38c-0.02-0.06-0.04-0.1-0.06-0.16c2.15-1.28,2.65-3.37,2.49-5.78c0-0.02-0.01-0.04-0.01-0.07
	c0.26,0.04,0.56-0.02,0.93-0.27c2.4-5.56,2.04-11.12,0-16.68c-0.26-0.23-0.51-0.47-0.77-0.7c0.51-0.79,0.09-1.62-0.25-2.38
	c-1.47-3.29-3.06-6.51-5.65-9.09c-1.79-1.78-3.14-3.81-4.07-6.14c-0.07-0.47-0.18-0.92-0.31-1.36c1.06-3.14,1.7-6.4,2.64-9.58
	c0.01,0,0.02,0.01,0.03,0.02c2.49-0.23,4.32-1.62,5.92-3.4c0.16-0.04,0.3-0.09,0.44-0.13c-0.07,0.19-0.14,0.38-0.24,0.58
	c4.92,0.53,9.5,1.66,12.71,5.96c1.19,1.59,2.39,3.19,3.62,4.75c2.32,2.94,3.45,6.62,6.06,9.36c0.16,0.04,0.32,0.1,0.47,0.15
	c-0.24,5.53,2.28,10.52,3.15,15.84c0.19,0.22,0.41,0.42,0.61,0.63c-1.81,3.86-0.68,8.07-1.31,12.08c0.4,0.17,0.78,0.37,1.16,0.57
	c-0.11,0.14-0.22,0.29-0.34,0.48c-1.82,2.08-2.73,4.37-1.81,7.07c-0.08,0.02-0.15,0.02-0.22,0.05c-2.17,3.25-3.9,6.68-4.46,10.61
	c0.05,0.05,0.11,0.11,0.16,0.16C414.14,392.47,414.14,392.47,414.13,392.47z"/>
</svg>
