<?xml version="1.0" encoding="utf-8"?>
<!-- Generator: Adobe Illustrator 24.3.0, SVG Export Plug-In . SVG Version: 6.00 Build 0)  -->
<svg version="1.1" id="Layer_1" xmlns="http://www.w3.org/2000/svg" xmlns:xlink="http://www.w3.org/1999/xlink" x="0px" y="0px"
	 viewBox="0 0 4000 4000" style="enable-background:new 0 0 4000 4000;" xml:space="preserve">
<style type="text/css">
	.st0{fill-rule:evenodd;clip-rule:evenodd;fill:#525254;}
</style>
<g>
	<path class="st0" d="M1356.23,1110.4c93.74-303.79,514.32-426.32,811.49-345.42c335.22,91.23,591.22,387.59,983.19,447.17
		c-242.01,83.79-689.65,283.97-1070.89,270.69c-317.38-11.06-590.35-150.91-696.09-212.97c42.83-28.51,87.5-54.55,133.85-77.92
		c383.96-193.59,802.15-143.85,1065.66-111.83c-186.4-57.72-320.92-122.58-575.58-122.58
		C1773.71,957.53,1552.48,1012.62,1356.23,1110.4"/>
	<path class="st0" d="M1296.65,1148.32c95.59-164.73-69.04-353.28-230.43-395.84c-160.77-42.4-337.78,19.17-514.48-49.93
		C702.03,876.02,904.24,1291.86,1296.65,1148.32"/>
	<path class="st0" d="M1345.12,915.6c-165.15-94.88-116.85-340.47,1.63-458.02c118.02-117.1,302.11-152.29,420.59-300.48
		C1723.93,382.48,1756.73,843.7,1345.12,915.6"/>
	<path class="st0" d="M1317.19,1324.23c99.86-26.99,175.63,85.87,175.27,176.52c-0.36,90.3-57.54,174.51-46.13,276.92
		C1376.46,1674.43,1186.73,1509.9,1317.19,1324.23"/>
	<path class="st0" d="M2039.6,2731.72h273.19v273.2H2039.6V2731.72z M2039.6,3091.44h273.19v273.19H2039.6V3091.44z
		 M1687.21,3091.44h273.19v273.19h-273.19V3091.44z M1687.21,2731.72h273.19v273.2h-273.19V2731.72z"/>
	<path class="st0" d="M853.8,2800.57c-126.97-341.59-110.68-729.32,63.61-1068.16c262.76-510.86,824.75-794.25,1391.74-701.79
		c-97.11-20.95-197.92-31.98-301.3-31.98c-785.42,0-1422.13,636.71-1422.13,1422.13c0,191.62,37.96,374.36,106.7,541.18
		L853.8,2800.57z M2007.85,3625.61c-332.71,0-633.92-134.86-851.95-352.89c-0.08-0.08-0.16-0.16-0.24-0.24
		c-19.17-19.18-37.69-38.99-55.54-59.42c-58.6-66.68-109.56-138.24-152.82-213.37l-164.06,144.38
		c247.59,418.3,703.3,698.84,1224.6,698.84c448.4,0,848.25-207.58,1108.9-531.83l-154.71-154.71
		C2741.72,3441.75,2396.28,3625.61,2007.85,3625.61z"/>
	<path class="st0" d="M2000,1710.56l213.79,213.79l1292.48,1292.49c58.79,58.79,58.79,154.99,0,213.78c-58.8,58.8-155,58.8-213.79,0
		L2000,2138.14L707.51,3430.62c-58.79,58.8-154.99,58.8-213.79,0c-58.79-58.79-58.79-154.99,0-213.78l1292.49-1292.49L2000,1710.56z
		"/>
</g>
</svg>
