<?xml version="1.0" encoding="utf-8"?>
<!-- Generator: Adobe Illustrator 24.3.0, SVG Export Plug-In . SVG Version: 6.00 Build 0)  -->
<svg version="1.1" id="Camada_1" xmlns="http://www.w3.org/2000/svg" xmlns:xlink="http://www.w3.org/1999/xlink" x="0px" y="0px"
	 viewBox="0 0 1300 1300" style="enable-background:new 0 0 1300 1300;" xml:space="preserve">
<style type="text/css">
	.st0{fill:#535353;}
</style>
<g>
	<g>
		<path class="st0" d="M344.27,955.13c15.03-36.23,30.17-72.88,36.39-111.61s2.77-80.33-17.47-113.93
			c-31.35-52.03-94.68-74.19-153.86-87.89c82.17-47.95,164.57-96.05,240.47-153.42c75.9-57.37,145.52-124.54,196.57-204.83
			C578.7,520.33,476.6,747.34,344.27,955.13z"/>
		
			<ellipse transform="matrix(0.1981 -0.9802 0.9802 0.1981 -127.1313 687.5236)" class="st0" cx="356.64" cy="421.46" rx="81.88" ry="81.88"/>
		<path class="st0" d="M955.73,955.13c-15.03-36.23-30.17-72.88-36.39-111.61c-6.22-38.73-2.77-80.33,17.47-113.93
			c31.35-52.03,94.68-74.19,153.86-87.89c-82.17-47.95-164.57-96.05-240.47-153.42c-75.9-57.37-145.52-124.54-196.57-204.83
			C721.3,520.33,823.4,747.34,955.73,955.13z"/>
		
			<ellipse transform="matrix(0.7071 -0.7071 0.7071 0.7071 -21.7173 790.497)" class="st0" cx="943.36" cy="421.46" rx="81.88" ry="81.88"/>
	</g>
</g>
</svg>
