<?xml version="1.0" encoding="utf-8"?>
<!-- Generator: Adobe Illustrator 24.3.0, SVG Export Plug-In . SVG Version: 6.00 Build 0)  -->
<svg version="1.1" id="Layer_1" xmlns="http://www.w3.org/2000/svg" xmlns:xlink="http://www.w3.org/1999/xlink" x="0px" y="0px"
	 viewBox="0 0 2372 1898" style="enable-background:new 0 0 2372 1898;" xml:space="preserve">
<style type="text/css">
	.st0{fill:#525252;}
</style>
<path class="st0" d="M1965.14,658.91c0,23.29,0,46.58,0,69.86c-0.92,4.33-2.22,8.62-2.71,13
	c-11.25,101.25-52.64,188.43-124.39,260.43c-204.38,205.09-409.3,409.64-614.09,614.32c-23.66,23.65-49.42,23.52-73.09-0.14
	c-203.71-203.62-407.84-406.81-610.81-611.16c-104.19-104.9-146.5-232.07-124.22-378.55C455.5,365.9,722.48,200.91,973.63,280.57
	c70.9,22.49,131.96,60.68,183.97,113.64c9.75,9.93,19.69,19.67,30.74,30.69c12.09-12.68,22.23-24,33.08-34.58
	c98.5-96.02,216.11-139.2,353.45-126.71c176.73,16.07,329.47,145.04,374.66,316.71C1956.31,606.1,1960.01,632.69,1965.14,658.91z
	 M1163.8,1175.67c107.92,0.03,188.19-32.56,247.06-90.41c13.26-13.04,19.86-28.1,15.11-46.55c-9.32-36.18-49.86-45.61-79.27-18.69
	c-94.06,86.13-225.71,86.15-318.34,0.04c-22.03-20.48-50.6-21.03-68.76-1.32c-18.01,19.55-15.93,47.01,5.54,67.39
	C1027.41,1145.24,1101.68,1174.72,1163.8,1175.67z M912.91,740.39c-0.29,37.76,29.82,68.6,67.6,69.23
	c37.83,0.63,69.87-31.1,69.69-69.01c-0.18-37.39-31.27-68.38-68.71-68.48C943.93,672.03,913.2,702.61,912.91,740.39z
	 M1461.94,741.06c0.11-37.85-30.06-68.5-67.85-68.92c-37.83-0.43-69.77,31.49-69.38,69.31c0.39,37.43,31.58,68.24,69.01,68.18
	C1431.32,809.56,1461.83,778.89,1461.94,741.06z"/>
</svg>
