<?xml version="1.0" encoding="utf-8"?>
<!-- Generator: Adobe Illustrator 24.3.0, SVG Export Plug-In . SVG Version: 6.00 Build 0)  -->
<svg version="1.1" id="Layer_1" xmlns="http://www.w3.org/2000/svg" xmlns:xlink="http://www.w3.org/1999/xlink" x="0px" y="0px"
	 viewBox="0 0 595.28 841.89" style="enable-background:new 0 0 595.28 841.89;" xml:space="preserve">
<style type="text/css">
	.st0{fill:#535353;}
</style>
<g>
	<path class="st0" d="M368.4,576.97c-0.06-8.73-6.05-14.72-14.84-14.85c-3.31-0.05-6.61-0.01-10.57-0.01
		c5.86-9.72,4.8-18.84,1-28.42c-13.74-34.61-33.11-65.8-56.38-94.71c-4.99-6.2-10.18-12.23-15.19-18.24
		c0.15-0.47,0.16-0.76,0.3-0.93c2.5-2.95,5.04-5.87,7.53-8.82c25.68-30.36,47.16-63.3,62.39-100.19c4.33-10.48,7.4-20.74,0.25-31.86
		c4.45,0,8.13,0.04,11.82-0.01c7.35-0.1,12.71-5.3,12.96-12.68c0.14-3.86,0.07-7.73,0.06-11.6c-0.01-2.87,0.19-5.77-0.18-8.6
		c-0.96-7.3-6.81-11.42-15.89-11.42c-67.63-0.01-135.27,0-202.9,0c-1.12,0-2.25,0-3.37,0.07c-7.83,0.49-13.42,6.31-13.52,14.14
		c-0.07,4.99-0.02,9.98-0.01,14.97c0.02,9.78,5.76,15.61,15.5,15.7c2.9,0.03,5.8,0,9.32,0c-5.49,9.36-5.14,18.1-1.42,27.2
		c13.98,34.17,32.85,65.4,56.09,94.03c5.4,6.66,11.04,13.13,16.75,19.89c-1.4,1.62-2.69,3.11-3.99,4.59
		c-23.73,27.18-44.29,56.47-59.54,89.29c-2.57,5.53-4.78,11.22-7.33,16.76c-4.64,10.06-6.55,20.13,0.11,30.82
		c-4.16,0-7.6-0.06-11.04,0.01c-8.34,0.18-14.36,6.21-14.44,14.48c-0.05,5.24-0.04,10.48,0,15.72c0.06,8.63,6,14.6,14.57,14.6
		c69.13,0.01,138.26,0.01,207.39,0c8.55,0,14.5-5.99,14.56-14.62C368.44,587.2,368.44,582.09,368.4,576.97z M319.79,562.1
		c-46.55,0.02-93.1,0.02-139.65,0c-12.13,0-18.8-9.8-14.48-21.15c13.77-36.15,34.29-68.26,58.72-98.01
		c4.83-5.88,9.88-11.57,14.83-17.36c3.5-4.09,3.46-5.59-0.07-9.61c-26.84-30.61-50.55-63.3-67.17-100.72
		c-2.37-5.34-4.59-10.76-6.61-16.25c-3.81-10.32,2.98-20.01,14-20.03c23.59-0.05,47.17-0.02,70.76-0.02c23.21,0,46.42-0.01,69.64,0
		c12.46,0.01,18.75,9.25,14.29,20.97c-14.93,39.28-37.65,73.78-64.78,105.57c-2.91,3.42-5.93,6.75-8.87,10.15
		c-3.39,3.92-3.38,5.47,0.03,9.3c23.22,26.08,43.89,53.99,59.72,85.21c5.17,10.19,9.63,20.77,13.94,31.37
		C338.5,552.41,331.6,562.1,319.79,562.1z"/>
	<path class="st0" d="M306.8,519.98c-7.09-5.46-14.34-10.85-22.04-15.37c-15.01-8.81-31.27-11.83-48.54-8.55
		c-19.79,3.75-35.15,15.28-49.42,28.49c-4.81,4.45-5.86,10.52-3.12,16.52c2.75,6.04,8.01,8.44,14.61,8.41
		c17.21-0.09,34.41-0.03,51.62-0.03c8.1,0,16.21,0.01,24.31,0c9.73-0.01,19.46,0.17,29.17-0.09c10.85-0.3,16.87-10.82,11.46-20.21
		C312.85,525.68,309.98,522.42,306.8,519.98z"/>
	<path class="st0" d="M255.56,401.97c12.71-13.94,24.34-28.73,34.71-44.5c3.4-5.17,4.72-10.53,1.56-16.16
		c-3.14-5.61-8.16-8.06-14.61-7.96c-9.23,0.14-18.47,0.03-27.7,0.03c-9.11,0-18.22-0.05-27.33,0.04c-2.22,0.02-4.54,0.15-6.63,0.82
		c-9.28,2.97-13.06,13.66-7.05,21.88c11.33,15.48,23.2,30.56,35.01,45.68C247.55,406.94,251.12,406.84,255.56,401.97z"/>
	<path class="st0" d="M244.07,486.66c0.16,3.78,2.53,6.44,5.75,6.46c3.03,0.02,5.6-2.5,5.85-6.04c0.15-2.21,0.08-4.46-0.17-6.66
		c-0.35-3.04-2.31-4.57-5.31-4.63c-3.14-0.06-5.14,1.64-5.94,4.58c-0.35,1.28-0.18,2.7-0.25,4.06c0.02,0,0.04,0,0.06,0
		C244.07,485.18,244.04,485.92,244.07,486.66z"/>
	<path class="st0" d="M249.76,427.41c-3.6,0.07-5.7,3.2-5.71,8.51c0,0.12,0,0.25,0,0.37c0,5.53,2.2,8.8,5.87,8.72
		c3.69-0.08,5.84-3.35,5.83-8.88C255.75,430.68,253.46,427.35,249.76,427.41z"/>
	<path class="st0" d="M255.39,457.18c-0.6-2.99-2.74-4.77-5.88-4.58c-2.92,0.18-4.75,1.99-5.32,4.86c-0.21,1.07-0.03,2.23-0.03,3.34
		c-0.03,0-0.05,0-0.08,0c0,0.99-0.05,1.99,0.01,2.98c0.21,3.52,2.65,6.11,5.73,6.13c2.88,0.02,5.53-2.4,5.8-5.7
		C255.81,461.88,255.84,459.45,255.39,457.18z"/>
</g>
</svg>
