<?xml version="1.0" encoding="utf-8"?>
<!-- Generator: Adobe Illustrator 24.3.0, SVG Export Plug-In . SVG Version: 6.00 Build 0)  -->
<svg version="1.1" id="Layer_1" xmlns="http://www.w3.org/2000/svg" xmlns:xlink="http://www.w3.org/1999/xlink" x="0px" y="0px"
	 viewBox="0 0 4000 4000" style="enable-background:new 0 0 4000 4000;" xml:space="preserve">
<style type="text/css">
	.st0{fill:#525252;}
</style>
<g>
	<path class="st0" d="M2453.07,980.07l-453.07,477.23l-453.08-477.23c0,384.91,176.55,728.58,453.08,954.46
		C2276.52,1708.65,2453.07,1364.97,2453.07,980.07 M2132.74,1158.81c0-73.32-59.43-132.74-132.73-132.74
		c-73.32,0-132.74,59.43-132.74,132.74c0,73.3,59.43,132.73,132.74,132.73C2073.31,1291.54,2132.74,1232.11,2132.74,1158.81z"/>
	<path class="st0" d="M2954.47,2387.61l-477.23-453.08l477.23-453.07c-384.91,0-728.58,176.55-954.46,453.07
		C2225.89,2211.06,2569.56,2387.61,2954.47,2387.61 M2775.73,2067.27c73.31,0,132.74-59.43,132.74-132.74
		c0-73.3-59.43-132.73-132.74-132.73c-73.3,0-132.73,59.43-132.73,132.73C2643,2007.84,2702.43,2067.27,2775.73,2067.27z"/>
	<path class="st0" d="M1546.93,2889l453.08-477.23L2453.07,2889c0-384.91-176.55-728.58-453.07-954.47
		C1723.48,2160.42,1546.93,2504.09,1546.93,2889 M1867.26,2710.26c0,73.32,59.43,132.74,132.74,132.74
		c73.3,0,132.73-59.43,132.73-132.74c0-73.3-59.43-132.73-132.73-132.73C1926.69,2577.53,1867.26,2636.96,1867.26,2710.26z"/>
	<path class="st0" d="M1045.53,1481.46l477.23,453.07l-477.23,453.08c384.91,0,728.58-176.55,954.48-453.08
		C1774.11,1658.01,1430.44,1481.46,1045.53,1481.46 M1224.27,1801.8c-73.31,0-132.74,59.43-132.74,132.73
		c0,73.31,59.43,132.74,132.74,132.74c73.3,0,132.73-59.43,132.73-132.74C1357,1861.23,1297.57,1801.8,1224.27,1801.8z"/>
</g>
</svg>
