<?xml version="1.0" encoding="utf-8"?>
<!-- Generator: Adobe Illustrator 24.3.0, SVG Export Plug-In . SVG Version: 6.00 Build 0)  -->
<svg version="1.1" id="Layer_1" xmlns="http://www.w3.org/2000/svg" xmlns:xlink="http://www.w3.org/1999/xlink" x="0px" y="0px"
	 viewBox="0 0 595.28 841.89" style="enable-background:new 0 0 595.28 841.89;" xml:space="preserve">
<style type="text/css">
	.st0{fill:#535453;}
</style>
<g>
	<path class="st0" d="M523.99,211.12c-12.2-21-24.25-42.09-36.54-63.05c-1.58-2.69-4.17-4.78-6.29-7.15c-1.95,0-3.9,0-5.86,0
		c-0.88,0.65-1.71,1.39-2.65,1.94c-13.91,8.07-27.85,16.08-41.75,24.17c-5.93,3.45-7.06,7.49-4,13.45c0.49,0.95,0.93,1.93,1.42,2.96
		c-6.9,3.45-14.02,4.21-21.17,3.23c-20.73-2.83-39.62,2.04-57.28,12.78c-3.27,1.99-6.67,3.79-10.31,5.84c0-1.87-0.02-3.16,0-4.45
		c0.24-11.46-6.01-17.84-17.53-17.87c-6.02-0.01-12.04,0-18.05,0c-12.85,0-25.7,0.02-38.55-0.01c-3.8-0.01-7.12,1.31-7.8,5.14
		c-0.42,2.34,0.3,5.68,1.83,7.35c1.45,1.58,4.63,2.15,7.05,2.17c17.57,0.17,35.13,0.09,52.7,0.09c1.74,0,3.48,0,5.17,0
		c0.93,11.68-8.16,22.29-19.44,23.33c-8.19,0.76-16.21,0.75-23.08-4.94c-1.6-1.33-3.62-2.16-5.46-3.2c-5.63-3.18-9.9-2.72-12.3,1.32
		c-2.42,4.07-0.69,8.24,4.78,11.42c6.74,3.91,13.5,7.8,20.25,11.69c28.42,16.4,56.82,32.81,85.26,49.17
		c4.11,2.36,7.59,5.14,8.16,10.2c0.52,4.57-1.11,8.36-4.89,11c-4.31,3-8.78,2.84-13.28,0.25c-15.05-8.69-30.11-17.36-45.16-26.04
		c-9.29-5.35-18.53-10.79-27.88-16.02c-5.39-3.02-10.83-0.79-11.75,4.68c-0.7,4.17,1.78,6.6,5.12,8.52
		c14.51,8.33,28.99,16.71,43.47,25.08c16.03,9.26,32.08,18.49,48.07,27.83c7.26,4.24,8.97,10.17,4.89,16.76
		c-8.98-10.98-20.31-13.55-33.58-8.78c-0.2-10.27-4.02-18.18-12.2-23.65c-8.14-5.45-16.9-5.49-25.79-2.07
		c-4.49-16.46-12.64-24.4-25.08-25.04c-6.06-0.31-11.64,0.92-16.66,4.31c-7.32,4.93-11.02,12.11-12.02,20.8
		c-0.99-0.27-1.45-0.37-1.89-0.51c-19.62-6.24-36.25,5.94-36.28,26.61c-0.01,4.96,0,9.93,0,15.49c-1.38-0.65-2.1-0.93-2.76-1.32
		c-16.45-9.51-32.97-18.91-49.31-28.6c-11.33-6.72-20.15-16.1-25.55-28.09c-5.09-11.31-11.26-21.54-21.91-28.77
		c14.67-25.4,29.18-50.51,42.81-74.12c9.79,1.35,18.35,3.27,26.95,3.55c11.51,0.37,23.06-0.53,34.59-0.86
		c2.6-0.07,5.21,0.07,7.8-0.1c4.41-0.3,7.1-3.02,7.22-7.04c0.11-4.09-2.87-7.56-7.28-7.53c-12.99,0.07-25.99,0.3-38.98,0.77
		c-7.36,0.27-14.57,0.32-21.25-3.17c-0.06-8.72-0.19-8.98-7.97-13.49c-12.93-7.49-25.87-14.95-38.83-22.38
		c-6.9-3.96-10.89-2.89-14.88,3.98c-7.01,12.08-13.97,24.19-20.95,36.29c-12.51,21.66-25.04,43.3-37.52,64.98
		c-3.31,5.74-2.81,10.29,2.04,13.17c14.95,8.85,30.02,17.51,45.16,26.04c4.18,2.36,8.27,1.02,11.1-2.91
		c0.91-1.26,1.73-2.59,2.68-4.04c6.31,4.45,10.5,10.09,13.33,16.83c7.93,18.85,21.11,32.83,38.94,42.76
		c15.04,8.37,29.6,17.65,44.87,25.55c7.69,3.97,10.53,8.66,9.9,17.26c-0.84,11.42-0.21,22.94-0.21,34.27
		c-0.66,0.18-0.87,0.31-0.96,0.25c-0.81-0.54-1.57-1.13-2.38-1.67c-11.83-7.87-24.34-9.52-37.46-3.67
		c-11.08,4.94-13.99,14.19-7.93,24.72c8.74,15.21,17.44,30.44,26.34,45.55c14.01,23.78,28.3,47.39,42.17,71.24
		c2.85,4.9,4.34,10.58,6.58,16.22c-7.03,1.79-8.94,5.73-8.86,11.53c0.21,15.45,0.07,30.9,0.08,46.36
		c0.01,8.43,2.68,11.15,10.99,11.15c38.71,0.01,77.42,0.01,116.14,0c8.47,0,11.26-2.84,11.27-11.5c0.02-14.48,0.01-28.95,0.01-43.43
		c0-11-1.49-12.67-12.13-13.74c-0.25-0.02-0.46-0.41-0.69-0.63c0.46-7.27,2.36-12.51,7.64-19.59c9.63-12.94,15.98-27.26,16.89-43.41
		c0.77-13.62,0.5-27.31,0.53-40.97c0.02-5.6-2.98-9.06-7.35-9.08c-4.56-0.01-7.48,3.61-7.51,9.5c-0.05,11.55,0.06,23.1-0.09,34.64
		c-0.16,13.35-3.93,25.75-11.74,36.53c-7.18,9.93-12.73,20.33-13.77,32.76c-0.89,0.17-1.51,0.39-2.14,0.39
		c-27.33,0.02-54.65-0.01-81.98,0.08c-2.8,0.01-3.49-1.12-3.77-3.71c-0.94-8.55-4.12-16.3-8.98-23.4
		c-2.93-4.29-5.91-8.56-8.52-13.05C220.98,499.14,202,466.21,183,433.3c-0.85-1.48-1.66-2.98-2.48-4.46
		c10.61-6.18,23.32-3.76,30.07,5.56c4.61,6.36,8.54,13,7.16,21.5c-0.49,3.01-0.15,6.17-0.06,9.26c0.14,4.83,3.1,7.88,7.44,7.82
		c4.21-0.06,6.94-2.93,7.15-7.57c0.07-1.46,0.02-2.93,0.02-4.39c0-39.53-0.01-79.05,0.03-118.58c0-2.25,0.07-4.59,0.63-6.75
		c1.78-6.9,8.57-10.46,15.23-8.2c4.83,1.64,7.66,6.05,7.67,12.32c0.03,27,0.01,54,0.03,81c0,1.62-0.14,3.31,0.22,4.86
		c0.92,3.91,3.31,6.3,7.58,6.12c4-0.17,6.29-2.4,6.89-6.26c0.3-1.91,0.27-3.89,0.27-5.83c0.01-33.34,0.01-66.69,0.01-100.03
		c0-10.36,4.04-15.78,11.72-15.78c7.68,0,11.82,5.48,11.82,15.76c0.01,33.34,0,66.69,0.01,100.03c0,1.79-0.06,3.59,0.13,5.36
		c0.44,4.11,2.7,6.53,6.93,6.75c4.04,0.21,7.07-2.38,7.69-6.58c0.21-1.44,0.11-2.92,0.11-4.38c0.01-27.16-0.04-54.33,0.03-81.49
		c0.02-8.72,6.91-14.15,14.89-12c5.25,1.42,8.61,6.44,8.63,13.26c0.05,19.68,0.02,39.36,0.02,59.04c0,8.13-0.08,16.27,0.03,24.4
		c0.08,5.58,4.4,9.08,9.34,7.55c3.95-1.22,5.3-4.25,5.28-8.3c-0.09-19.19-0.08-38.39-0.01-57.58c0.03-7.17,4.04-12.25,9.98-13.04
		c7.72-1.02,13.49,4.06,13.53,12.22c0.08,21.8,0,43.59,0.07,65.39c0.02,5.32,2.89,8.47,7.32,8.54c4.57,0.07,7.26-2.84,7.52-8.28
		c0.1-2.16,0.02-4.33,0.02-6.72c12.03,3.49,17.66,1.23,23.51-8.89c11.22-19.4,22.55-38.75,33.6-58.25
		c11.04-19.49,21.63-39.23,32.77-58.66c2.75-4.8,6.89-8.81,10.63-13.5c5.35,5.45,10.06,4.51,15.21,1.44
		c12.84-7.64,25.9-14.9,38.74-22.55c2.69-1.6,4.79-4.2,7.16-6.34c0-1.95,0-3.9,0-5.86C539.68,237.85,531.77,224.52,523.99,211.12z
		 M98.7,273.21c-11.4-6.58-22.44-12.96-33.84-19.54c18.18-31.49,36.17-62.65,54.36-94.16c11.52,6.67,22.45,13,33.81,19.58
		C134.88,210.52,116.91,241.65,98.7,273.21z M250.28,587.25c35.88,0,71.84,0,108.11,0c0,12.74,0,25.5,0,38.51
		c-36.04,0-71.88,0-108.11,0C250.28,613.08,250.28,600.35,250.28,587.25z M496.79,271.59c-1.58-2.6-2.97-5.09-4.55-7.46
		c-2.15-3.24-5.25-4.47-8.88-3.04c-3.78,1.49-5.17,4.45-4.66,8.59c0.17,1.37-0.56,3.45-1.61,4.28c-7.85,6.2-12.98,14.22-17.5,23.05
		c-7.02,13.71-14.85,27.02-22.52,40.39c-13.17,22.96-26.47,45.84-39.72,68.75c-0.81,1.39-1.64,2.77-2.44,4.11
		c-5.81-1.73-8.95-5.64-8.99-11.09c-0.03-4.88,0.08-9.76-0.03-14.64c-0.18-7.88,3.06-13.65,10.07-17.36
		c3.59-1.9,7.07-3.98,10.56-6.07c4.8-2.87,6.29-6.54,4.34-10.43c-2.08-4.15-5.75-5.04-11.27-2.74c-0.42,0.17-0.89,0.24-1.7,0.46
		c1.39-11.54-2.18-20.95-11.82-28.04c5.78-4.94,10.15-10.51,11.04-17.96c1.46-12.22-3.11-21.58-13.84-27.78
		c-20.66-11.96-41.32-23.9-61.98-35.85c-1.4-0.81-2.78-1.64-4.17-2.46c0.22-0.44,0.29-0.83,0.51-0.96
		c16.17-9.33,32.13-19.05,48.6-27.8c11.22-5.97,23.59-7.88,36.4-6.4c11.29,1.3,22.41,0.75,33.22-4.84c0.98,1.6,1.92,3.04,2.78,4.53
		c7.32,12.65,14.61,25.31,21.95,37.95c3.12,5.38,6.99,6.94,11.07,4.58c4.13-2.39,4.82-6.58,1.78-11.86
		c-9.31-16.19-18.67-32.35-28-48.53c-0.97-1.68-1.89-3.38-3.07-5.49c11.25-6.5,22.28-12.88,33.76-19.51
		c18.11,31.35,36.03,62.38,54.34,94.08C519.33,258.51,508.32,264.9,496.79,271.59z"/>
	<path class="st0" d="M506.86,257.75c3.93,0.03,7.44-3.53,7.41-7.5c-0.02-4.03-3.5-7.4-7.54-7.3c-3.97,0.1-6.98,3.16-7.05,7.18
		C499.6,254.3,502.83,257.73,506.86,257.75z"/>
	<path class="st0" d="M263.34,598.92c-3.88,0.01-7.49,3.67-7.43,7.54c0.06,3.75,3.38,7.09,7.17,7.22c4.18,0.14,7.47-3.01,7.53-7.21
		C270.68,602.43,267.3,598.91,263.34,598.92z"/>
	<path class="st0" d="M129.22,173.42c-3.98,0.15-7.32,3.79-7.14,7.77c0.18,4.03,3.79,7.26,7.82,7c3.98-0.25,6.84-3.39,6.79-7.43
		C136.62,176.6,133.23,173.26,129.22,173.42z"/>
</g>
</svg>
