<?xml version="1.0" encoding="utf-8"?>
<!-- Generator: Adobe Illustrator 24.3.0, SVG Export Plug-In . SVG Version: 6.00 Build 0)  -->
<svg version="1.1" id="Layer_1" xmlns="http://www.w3.org/2000/svg" xmlns:xlink="http://www.w3.org/1999/xlink" x="0px" y="0px"
	 viewBox="0 0 595.28 841.89" style="enable-background:new 0 0 595.28 841.89;" xml:space="preserve">
<style type="text/css">
	.st0{fill:#535353;}
</style>
<path class="st0" d="M157.11,300.88c-65.81-17.57-94.57-85.33-73.14-141.65c20.66-54.29,89.74-89.61,154.13-53.14
	c20.4-26.03,47.1-40.95,80.35-42.79c23.82-1.32,45.76,5.22,65.41,18.82c15.6,10.8,27.54,24.83,35.63,42.05
	c8.16,17.36,11.59,35.61,9.81,54.74c-1.75,18.81-8.28,35.96-18.39,50.84c11.46,0,22.85,0.22,34.22-0.06
	c13.64-0.34,27.27-1.64,40.9-1.55c20.46,0.12,36.09,9.47,45.96,27.42c15.09,27.44,2.16,61.95-27.08,73.18
	c-3.48,1.34-7.02,2.51-10.85,3.86c1.63,11.83,3.21,23.53,4.87,35.22c3.62,25.44-7.34,48.92-29.34,61.96
	c-3.5,2.08-4.16,4.11-3.71,8.01c3.18,27.48,6.05,55,8.99,82.51c1.34,12.58,2.41,25.18,3.96,37.73
	c3.14,25.46-14.06,45.72-39.71,46.02c-22.55,0.26-45.11,0.06-67.66,0.06c-71.81,0-143.63,0.02-215.44-0.01
	c-21.45-0.01-38.18-12.05-41.09-31.81c-1.45-9.85,0.65-20.4,2.16-30.49c3.67-24.6,7.97-49.1,11.87-73.67
	c0.23-1.43-0.37-3.68-1.42-4.51c-18.81-14.9-20.99-35.29-18.59-56.93c2.35-21.14,13.87-35.54,33.56-43.63
	c1.93-0.79,4.11-3.21,4.48-5.2C150.56,339.09,153.73,320.26,157.11,300.88z M371.96,464.39c-3.69,1.11-6.31,1.96-8.95,2.7
	c-36.39,10.15-71.89-20.83-66.31-57.94c3.62-24.1,18.08-38.48,40.83-45.83c53.12-17.18,106.19-34.55,159.19-52.12
	c15.93-5.28,25.05-21.34,21.91-36.92c-3.41-16.96-17.87-27.77-35.26-26.95c-40.9,1.92-81.82,3.59-122.72,5.36
	c-8.3,0.36-16.63,1.28-24.88,0.81c-3.34-0.19-7.65-2.72-9.38-5.51c-1.4-2.26-0.74-7.49,1.08-9.6c2.09-2.42,6.41-3.76,9.88-4.01
	c12.82-0.91,25.69-1.59,38.53-1.48c5.86,0.05,9.6-2.07,13.06-6.3c22.51-27.52,28.43-58.22,14.48-90.91
	c-14-32.81-39.97-50.97-75.86-52.93c-60.85-3.32-105.74,55.8-86.86,113.73c5.5,16.87,15.42,30.6,29.25,41.57
	c3.82,3.03,6.61,6.43,5,11.62c-1.67,5.39-5.87,6.92-11.1,6.98c-4.74,0.05-9.48,0.52-14.22,0.77c-31.92,1.71-55.44,16.75-70.3,44.96
	c-9.43,17.91-9.04,38.13-13.19,57.36c1.3,0.46,2.02,0.82,2.77,0.97c22.22,4.36,36.97,19.14,40.4,41.58
	c1.15,7.55,1.03,15.41,0.58,23.08c-1.35,23.09-17.31,42.12-39.93,47.15c-7.17,1.6-14.78,1.27-22.51,1.84
	c-4.46,27.67-8.98,55.52-13.44,83.38c-2.82,17.66,4.95,26.91,22.65,26.92c66.68,0.03,133.37-0.05,200.05,0.13
	c5.24,0.01,6.54-1.6,6.86-6.67c1.55-24.27,3.59-48.51,5.41-72.77C369.99,491.96,370.93,478.57,371.96,464.39z M227.64,123.04
	c-17.22-11.15-40.89-15.02-61.27-11.01c-44.68,8.8-76.39,52.05-69.25,98.86c5.2,34.1,32.96,64.65,66.54,71.5
	c3.42,0.7,5.24-0.5,7.4-3.07c5.07-6.03,10.23-12.12,16.12-17.3c15.53-13.66,34.01-21.03,54.94-23.63
	C214.54,202.58,210,164.3,227.64,123.04z M476.22,338.66c-2.82,0.7-3.97,0.91-5.07,1.27c-26.8,8.74-53.61,17.49-80.4,26.26
	c-17.43,5.7-34.95,11.16-52.26,17.21c-17.99,6.29-27.22,25.3-21.49,43.12c5.56,17.29,24.01,27.42,41.67,21.74
	c31.73-10.2,63.36-20.77,94.76-31.93c15.57-5.54,25.69-17.43,26.32-34.07C480.27,368.05,477.56,353.72,476.22,338.66z
	 M446.74,439.08c-14.25,4.79-27.69,9.29-41.12,13.82c-14.44,4.88-14.05,4.92-15.06,20c-1.95,29.17-4.39,58.31-6.6,87.47
	c-0.6,7.97-1.09,15.95-1.65,24.29c19.3,0,37.68,0.1,56.05-0.03c14.75-0.11,22.76-8.67,21.35-23.43
	c-2.68-28.11-5.76-56.18-8.74-84.26C449.66,464.59,448.22,452.26,446.74,439.08z M127.43,417.35c0.56,5.88,0.37,10.95,1.61,15.64
	c3.77,14.3,16.33,22.64,31.88,21.78c14.17-0.78,27.27-12.52,29.16-26.68c0.81-6.04,0.9-12.22,0.74-18.32
	c-0.42-16.46-10.51-27.98-26.08-30.24c-15.37-2.22-30.62,6.94-35.11,21.81C128.02,406.71,128.05,412.58,127.43,417.35z"/>
</svg>
